# File generated by ImageToStl.com - Free Image and 3D model conversion tools

mtllib treasure_chest.mtl

o obj1
v 29 14 -11
v 29 7 -11
v 29 14 -5
v 29 7 -5
vn -1 0 0
vt 0.90625 0.375
vt 0.90625 0.48438
vt 1 0.375
vt 1 0.48438
usemtl mat0
f 1/1/1 2/2/1 3/3/1
f 2/2/1 4/4/1 3/3/1
# Vertices: 4, normals: 1, texture coordinates: 4, faces: 2

o obj2
v 29 14 -11
v 29 14 -5
v 32 14 -11
v 32 14 -5
vn 0 1 0
vt 1 0.53125
vt 0.90625 0.53125
vt 1 0.57812
vt 0.90625 0.57812
usemtl mat0
f 5/5/2 6/6/2 7/7/2
f 6/6/2 8/8/2 7/7/2
# Vertices: 4, normals: 1, texture coordinates: 4, faces: 2

o obj3
v 29 7 -5
v 29 7 -11
v 32 7 -5
v 32 7 -11
vn 0 -1 0
vt 0.90625 0.53125
vt 1 0.53125
vt 0.90625 0.48438
vt 1 0.48438
usemtl mat0
f 9/9/3 10/10/3 11/11/3
f 10/10/3 12/12/3 11/11/3
# Vertices: 4, normals: 1, texture coordinates: 4, faces: 2

o obj4
v 29 14 -5
v 29 7 -5
v 32 14 -5
v 32 7 -5
vn 0 0 1
vt 0.59375 0.1875
vt 0.59375 0.29688
vt 0.54688 0.1875
vt 0.54688 0.29688
usemtl mat0
f 13/13/4 14/14/4 15/15/4
f 14/14/4 16/16/4 15/15/4
# Vertices: 4, normals: 1, texture coordinates: 4, faces: 2

o obj5
v 32 14 -11
v 32 7 -11
v 29 14 -11
v 29 7 -11
vn 0 0 -1
vt 0.54688 0.1875
vt 0.54688 0.29688
vt 0.59375 0.1875
vt 0.59375 0.29688
usemtl mat0
f 17/17/5 18/18/5 19/19/5
f 18/18/5 20/20/5 19/19/5
# Vertices: 4, normals: 1, texture coordinates: 4, faces: 2

o obj6
v 50 6 -12
v 50 0 -12
v 50 6 -18
v 50 0 -18
v 44 6 -18
v 44 0 -18
v 44 6 -12
v 44 0 -12
v 44 6 -18
v 44 6 -12
v 50 6 -18
v 50 6 -12
v 44 0 -12
v 44 0 -18
v 50 0 -12
v 50 0 -18
v 50 6 -12
v 50 0 -12
v 44 6 -18
v 44 0 -18
vn 1 0 0
vn -1 0 0
vn 0 1 0
vn 0 -1 0
vn 0 0 1
vn 0 0 -1
vt 0.53125 0.09375
vt 0.53125 0.1875
vt 0.625 0.09375
vt 0.625 0.1875
vt 0.46875 0.09375
vt 0.46875 0.1875
vt 0.375 0.09375
vt 0.375 0.1875
vt 0.28125 0.1875
vt 0.28125 0.09375
vt 0 0.04688
vt 0.01562 0.04688
vt 0 0.03125
vt 0.01562 0.03125
usemtl mat0
f 21/21/6 22/22/6 23/23/6
f 22/22/6 24/24/6 23/23/6
f 25/25/7 26/26/7 27/27/7
f 26/26/7 28/28/7 27/27/7
f 29/29/8 30/28/8 31/30/8
f 30/28/8 32/27/8 31/30/8
f 33/31/9 34/32/9 35/33/9
f 34/32/9 36/34/9 35/33/9
f 27/27/10 28/28/10 37/25/10
f 28/28/10 38/26/10 37/25/10
f 23/23/11 24/24/11 39/21/11
f 24/24/11 40/22/11 39/21/11
# Vertices: 20, normals: 6, texture coordinates: 14, faces: 12

o obj7
v 36 6 -12
v 36 0 -12
v 36 6 -18
v 36 0 -18
v 30 6 -18
v 30 0 -18
v 30 6 -12
v 30 0 -12
v 30 6 -18
v 30 6 -12
v 36 6 -18
v 36 6 -12
v 30 0 -12
v 30 0 -18
v 36 0 -12
v 36 0 -18
v 30 6 -12
v 30 0 -12
v 36 6 -18
v 36 0 -18
vn 1 0 0
vn -1 0 0
vn 0 1 0
vn 0 -1 0
vn 0 0 1
vn 0 0 -1
vt 0.375 0.09375
vt 0.375 0.1875
vt 0.46875 0.09375
vt 0.46875 0.1875
vt 0.625 0.09375
vt 0.625 0.1875
vt 0.53125 0.09375
vt 0.53125 0.1875
vt 0.28125 0.09375
vt 0.28125 0.1875
vt 0 0.04688
vt 0.01562 0.04688
vt 0 0.03125
vt 0.01562 0.03125
usemtl mat0
f 41/35/12 42/36/12 43/37/12
f 42/36/12 44/38/12 43/37/12
f 45/39/13 46/40/13 47/41/13
f 46/40/13 48/42/13 47/41/13
f 49/43/14 50/35/14 51/44/14
f 50/35/14 52/36/14 51/44/14
f 53/45/15 54/46/15 55/47/15
f 54/46/15 56/48/15 55/47/15
f 57/37/16 58/38/16 41/35/16
f 58/38/16 42/36/16 41/35/16
f 59/41/17 60/42/17 45/39/17
f 60/42/17 46/40/17 45/39/17
# Vertices: 20, normals: 6, texture coordinates: 14, faces: 12

o obj8
v 36 6 2
v 36 0 2
v 36 6 -4
v 36 0 -4
v 30 6 -4
v 30 0 -4
v 30 6 2
v 30 0 2
v 30 6 -4
v 30 6 2
v 36 6 -4
v 36 6 2
v 30 0 2
v 30 0 -4
v 36 0 2
v 36 0 -4
v 36 6 2
v 36 0 2
v 30 6 -4
v 30 0 -4
vn 1 0 0
vn -1 0 0
vn 0 1 0
vn 0 -1 0
vn 0 0 1
vn 0 0 -1
vt 0.46875 0.09375
vt 0.46875 0.1875
vt 0.375 0.09375
vt 0.375 0.1875
vt 0.53125 0.09375
vt 0.53125 0.1875
vt 0.625 0.09375
vt 0.625 0.1875
vt 0.28125 0.09375
vt 0.28125 0.1875
vt 0 0.04688
vt 0.01562 0.04688
vt 0 0.03125
vt 0.01562 0.03125
usemtl mat0
f 61/49/18 62/50/18 63/51/18
f 62/50/18 64/52/18 63/51/18
f 65/53/19 66/54/19 67/55/19
f 66/54/19 68/56/19 67/55/19
f 69/51/20 70/57/20 71/52/20
f 70/57/20 72/58/20 71/52/20
f 73/59/21 74/60/21 75/61/21
f 74/60/21 76/62/21 75/61/21
f 67/55/22 68/56/22 77/53/22
f 68/56/22 78/54/22 77/53/22
f 63/51/23 64/52/23 79/49/23
f 64/52/23 80/50/23 79/49/23
# Vertices: 20, normals: 6, texture coordinates: 14, faces: 12

o obj9
v 35 9 1
v 35 6 1
v 35 9 -3
v 35 6 -3
vn 1 0 0
vt 0.46875 0.14062
vt 0.46875 0.1875
vt 0.53125 0.14062
vt 0.53125 0.1875
usemtl mat0
f 81/63/24 82/64/24 83/65/24
f 82/64/24 84/66/24 83/65/24
# Vertices: 4, normals: 1, texture coordinates: 4, faces: 2

o obj10
v 31 9 -3
v 31 6 -3
v 31 9 1
v 31 6 1
vn -1 0 0
vt 0.46875 0.09375
vt 0.46875 0.14062
vt 0.53125 0.09375
vt 0.53125 0.14062
usemtl mat0
f 85/67/25 86/68/25 87/69/25
f 86/68/25 88/70/25 87/69/25
# Vertices: 4, normals: 1, texture coordinates: 4, faces: 2

o obj11
v 31 9 1
v 31 6 1
v 35 9 1
v 35 6 1
vn 0 0 1
vt 0.53125 0.09375
vt 0.53125 0.14062
vt 0.46875 0.09375
vt 0.46875 0.14062
usemtl mat0
f 89/71/26 90/72/26 91/73/26
f 90/72/26 92/74/26 91/73/26
# Vertices: 4, normals: 1, texture coordinates: 4, faces: 2

o obj12
v 35 9 -3
v 35 6 -3
v 31 9 -3
v 31 6 -3
vn 0 0 -1
vt 0.46875 0.14062
vt 0.46875 0.1875
vt 0.53125 0.14062
vt 0.53125 0.1875
usemtl mat0
f 93/75/27 94/76/27 95/77/27
f 94/76/27 96/78/27 95/77/27
# Vertices: 4, normals: 1, texture coordinates: 4, faces: 2

o obj13
v 50 15 2
v 50 9 2
v 50 15 -18
v 50 9 -18
v 30 15 -18
v 30 9 -18
v 30 15 2
v 30 9 2
v 30 15 -18
v 30 15 2
v 50 15 -18
v 50 15 2
v 30 9 2
v 30 9 -18
v 50 9 2
v 50 9 -18
v 50 15 2
v 50 9 2
v 50 15 -18
v 50 9 -18
v 30 15 -18
v 30 9 -18
vn 1 0 0
vn -1 0 0
vn 0 1 0
vn 0 -1 0
vn 0 0 1
vn 0 0 -1
vt 0.3125 0
vt 0.3125 0.09375
vt 0.625 0
vt 0.625 0.09375
vt 0 0
vt 0 0.09375
vt 0.90625 0.1875
vt 0.59375 0.1875
vt 0.90625 0.5
vt 0.59375 0.5
usemtl mat0
f 97/79/28 98/80/28 99/81/28
f 98/80/28 100/82/28 99/81/28
f 101/83/29 102/84/29 103/79/29
f 102/84/29 104/80/29 103/79/29
f 105/85/30 106/86/30 107/87/30
f 106/86/30 108/88/30 107/87/30
f 109/88/31 110/87/31 111/86/31
f 110/87/31 112/85/31 111/86/31
f 103/79/32 104/80/32 113/81/32
f 104/80/32 114/82/32 113/81/32
f 115/79/33 116/80/33 117/81/33
f 116/80/33 118/82/33 117/81/33
# Vertices: 22, normals: 6, texture coordinates: 10, faces: 12

o obj14
v 35 9 -13
v 35 6 -13
v 35 9 -17
v 35 6 -17
vn 1 0 0
vt 0.46875 0.14062
vt 0.46875 0.1875
vt 0.53125 0.14062
vt 0.53125 0.1875
usemtl mat0
f 119/89/34 120/90/34 121/91/34
f 120/90/34 122/92/34 121/91/34
# Vertices: 4, normals: 1, texture coordinates: 4, faces: 2

o obj15
v 31 9 -17
v 31 6 -17
v 31 9 -13
v 31 6 -13
vn -1 0 0
vt 0.53125 0.09375
vt 0.53125 0.14062
vt 0.46875 0.09375
vt 0.46875 0.14062
usemtl mat0
f 123/93/35 124/94/35 125/95/35
f 124/94/35 126/96/35 125/95/35
# Vertices: 4, normals: 1, texture coordinates: 4, faces: 2

o obj16
v 31 9 -13
v 31 6 -13
v 35 9 -13
v 35 6 -13
vn 0 0 1
vt 0.46875 0.14062
vt 0.46875 0.1875
vt 0.53125 0.14062
vt 0.53125 0.1875
usemtl mat0
f 127/97/36 128/98/36 129/99/36
f 128/98/36 130/100/36 129/99/36
# Vertices: 4, normals: 1, texture coordinates: 4, faces: 2

o obj17
v 35 9 -17
v 35 6 -17
v 31 9 -17
v 31 6 -17
vn 0 0 -1
vt 0.46875 0.09375
vt 0.46875 0.14062
vt 0.53125 0.09375
vt 0.53125 0.14062
usemtl mat0
f 131/101/37 132/102/37 133/103/37
f 132/102/37 134/104/37 133/103/37
# Vertices: 4, normals: 1, texture coordinates: 4, faces: 2

o obj18
v 49 9 -13
v 49 6 -13
v 49 9 -17
v 49 6 -17
vn 1 0 0
vt 0.46875 0.09375
vt 0.46875 0.14062
vt 0.53125 0.09375
vt 0.53125 0.14062
usemtl mat0
f 135/105/38 136/106/38 137/107/38
f 136/106/38 138/108/38 137/107/38
# Vertices: 4, normals: 1, texture coordinates: 4, faces: 2

o obj19
v 45 9 -17
v 45 6 -17
v 45 9 -13
v 45 6 -13
vn -1 0 0
vt 0.46875 0.14062
vt 0.46875 0.1875
vt 0.53125 0.14062
vt 0.53125 0.1875
usemtl mat0
f 139/109/39 140/110/39 141/111/39
f 140/110/39 142/112/39 141/111/39
# Vertices: 4, normals: 1, texture coordinates: 4, faces: 2

o obj20
v 45 9 -13
v 45 6 -13
v 49 9 -13
v 49 6 -13
vn 0 0 1
vt 0.46875 0.14062
vt 0.46875 0.1875
vt 0.53125 0.14062
vt 0.53125 0.1875
usemtl mat0
f 143/113/40 144/114/40 145/115/40
f 144/114/40 146/116/40 145/115/40
# Vertices: 4, normals: 1, texture coordinates: 4, faces: 2

o obj21
v 49 9 -17
v 49 6 -17
v 45 9 -17
v 45 6 -17
vn 0 0 -1
vt 0.53125 0.09375
vt 0.53125 0.14062
vt 0.46875 0.09375
vt 0.46875 0.14062
usemtl mat0
f 147/117/41 148/118/41 149/119/41
f 148/118/41 150/120/41 149/119/41
# Vertices: 4, normals: 1, texture coordinates: 4, faces: 2

o obj22
v 49 9 1
v 49 6 1
v 49 9 -3
v 49 6 -3
vn 1 0 0
vt 0.53125 0.09375
vt 0.53125 0.14062
vt 0.46875 0.09375
vt 0.46875 0.14062
usemtl mat0
f 151/121/42 152/122/42 153/123/42
f 152/122/42 154/124/42 153/123/42
# Vertices: 4, normals: 1, texture coordinates: 4, faces: 2

o obj23
v 45 9 -3
v 45 6 -3
v 45 9 1
v 45 6 1
vn -1 0 0
vt 0.46875 0.14062
vt 0.46875 0.1875
vt 0.53125 0.14062
vt 0.53125 0.1875
usemtl mat0
f 155/125/43 156/126/43 157/127/43
f 156/126/43 158/128/43 157/127/43
# Vertices: 4, normals: 1, texture coordinates: 4, faces: 2

o obj24
v 45 9 1
v 45 6 1
v 49 9 1
v 49 6 1
vn 0 0 1
vt 0.46875 0.09375
vt 0.46875 0.14062
vt 0.53125 0.09375
vt 0.53125 0.14062
usemtl mat0
f 159/129/44 160/130/44 161/131/44
f 160/130/44 162/132/44 161/131/44
# Vertices: 4, normals: 1, texture coordinates: 4, faces: 2

o obj25
v 49 9 -3
v 49 6 -3
v 45 9 -3
v 45 6 -3
vn 0 0 -1
vt 0.46875 0.14062
vt 0.46875 0.1875
vt 0.53125 0.14062
vt 0.53125 0.1875
usemtl mat0
f 163/133/45 164/134/45 165/135/45
f 164/134/45 166/136/45 165/135/45
# Vertices: 4, normals: 1, texture coordinates: 4, faces: 2

o obj26
v 50 6 2
v 50 0 2
v 50 6 -4
v 50 0 -4
v 44 6 -4
v 44 0 -4
v 44 6 2
v 44 0 2
v 44 6 -4
v 44 6 2
v 50 6 -4
v 50 6 2
v 44 0 2
v 44 0 -4
v 50 0 2
v 50 0 -4
v 44 6 2
v 44 0 2
v 50 6 -4
v 50 0 -4
vn 1 0 0
vn -1 0 0
vn 0 1 0
vn 0 -1 0
vn 0 0 1
vn 0 0 -1
vt 0.625 0.09375
vt 0.625 0.1875
vt 0.53125 0.09375
vt 0.53125 0.1875
vt 0.375 0.09375
vt 0.375 0.1875
vt 0.46875 0.09375
vt 0.46875 0.1875
vt 0.28125 0.1875
vt 0.28125 0.09375
vt 0 0.04688
vt 0.01562 0.04688
vt 0 0.03125
vt 0.01562 0.03125
usemtl mat0
f 167/137/46 168/138/46 169/139/46
f 168/138/46 170/140/46 169/139/46
f 171/141/47 172/142/47 173/143/47
f 172/142/47 174/144/47 173/143/47
f 175/142/48 176/145/48 177/141/48
f 176/145/48 178/146/48 177/141/48
f 179/147/49 180/148/49 181/149/49
f 180/148/49 182/150/49 181/149/49
f 183/139/50 184/140/50 167/137/50
f 184/140/50 168/138/50 167/137/50
f 185/143/51 186/144/51 171/141/51
f 186/144/51 172/142/51 171/141/51
# Vertices: 20, normals: 6, texture coordinates: 14, faces: 12

o obj27
v 49 5 1
v 49 1 1
v 49 5 -17
v 49 1 -17
v 31 5 -17
v 31 1 -17
v 31 5 1
v 31 1 1
v 31 5 -17
v 31 5 1
v 49 5 -17
v 49 5 1
v 31 1 1
v 31 1 -17
v 49 1 1
v 49 1 -17
v 31 5 1
v 31 1 1
v 49 5 1
v 49 1 1
v 49 5 -17
v 49 1 -17
v 31 5 -17
v 31 1 -17
vn 1 0 0
vn -1 0 0
vn 0 1 0
vn 0 -1 0
vn 0 0 1
vn 0 0 -1
vt 0 0.09375
vt 0 0.15625
vt 0.28125 0.09375
vt 0.28125 0.15625
vt 0.625 0.07812
vt 0.60938 0.07812
vt 0.625 0.09375
vt 0.60938 0.09375
vt 0.01562 0.04688
vt 0.03125 0.04688
vt 0.01562 0.03125
vt 0.03125 0.03125
usemtl mat0
f 187/151/52 188/152/52 189/153/52
f 188/152/52 190/154/52 189/153/52
f 191/151/53 192/152/53 193/153/53
f 192/152/53 194/154/53 193/153/53
f 195/155/54 196/156/54 197/157/54
f 196/156/54 198/158/54 197/157/54
f 199/159/55 200/160/55 201/161/55
f 200/160/55 202/162/55 201/161/55
f 203/151/56 204/152/56 205/153/56
f 204/152/56 206/154/56 205/153/56
f 207/151/57 208/152/57 209/153/57
f 208/152/57 210/154/57 209/153/57
# Vertices: 24, normals: 6, texture coordinates: 12, faces: 12

o obj28
v 49 20 -11
v 49 15 -11
v 49 20 -17
v 49 15 -17
vn 1 0 0
vt 0.90625 0
vt 0.90625 0.07812
vt 1 0
vt 1 0.07812
usemtl mat0
f 211/163/58 212/164/58 213/165/58
f 212/164/58 214/166/58 213/165/58
# Vertices: 4, normals: 1, texture coordinates: 4, faces: 2

o obj29
v 31 20 -17
v 31 15 -17
v 31 20 -11
v 31 15 -11
vn -1 0 0
vt 1 0
vt 1 0.07812
vt 0.90625 0
vt 0.90625 0.07812
usemtl mat0
f 215/167/59 216/168/59 217/169/59
f 216/168/59 218/170/59 217/169/59
# Vertices: 4, normals: 1, texture coordinates: 4, faces: 2

o obj30
v 31 20 -17
v 31 20 -11
v 49 20 -17
v 49 20 -11
vn 0 1 0
vt 0.90625 0.09375
vt 1 0.09375
vt 0.90625 0.375
vt 1 0.375
usemtl mat0
f 219/171/60 220/172/60 221/173/60
f 220/172/60 222/174/60 221/173/60
# Vertices: 4, normals: 1, texture coordinates: 4, faces: 2

o obj31
v 31 20 -11
v 31 15 -11
v 49 20 -11
v 49 15 -11
vn 0 0 1
vt 0.625 0.09375
vt 0.625 0.17188
vt 0.90625 0.09375
vt 0.90625 0.17188
usemtl mat0
f 223/175/61 224/176/61 225/177/61
f 224/176/61 226/178/61 225/177/61
# Vertices: 4, normals: 1, texture coordinates: 4, faces: 2

o obj32
v 49 20 -17
v 49 15 -17
v 31 20 -17
v 31 15 -17
vn 0 0 -1
vt 0.625 0
vt 0.625 0.07812
vt 0.90625 0
vt 0.90625 0.07812
usemtl mat0
f 227/179/62 228/180/62 229/181/62
f 228/180/62 230/182/62 229/181/62
# Vertices: 4, normals: 1, texture coordinates: 4, faces: 2

o obj33
v 49 20 1
v 49 15 1
v 49 20 -5
v 49 15 -5
vn 1 0 0
vt 1 0
vt 1 0.07812
vt 0.90625 0
vt 0.90625 0.07812
usemtl mat0
f 231/183/63 232/184/63 233/185/63
f 232/184/63 234/186/63 233/185/63
# Vertices: 4, normals: 1, texture coordinates: 4, faces: 2

o obj34
v 31 20 -5
v 31 15 -5
v 31 20 1
v 31 15 1
vn -1 0 0
vt 0.90625 0
vt 0.90625 0.07812
vt 1 0
vt 1 0.07812
usemtl mat0
f 235/187/64 236/188/64 237/189/64
f 236/188/64 238/190/64 237/189/64
# Vertices: 4, normals: 1, texture coordinates: 4, faces: 2

o obj35
v 31 20 -5
v 31 20 1
v 49 20 -5
v 49 20 1
vn 0 1 0
vt 1 0.09375
vt 0.90625 0.09375
vt 1 0.375
vt 0.90625 0.375
usemtl mat0
f 239/191/65 240/192/65 241/193/65
f 240/192/65 242/194/65 241/193/65
# Vertices: 4, normals: 1, texture coordinates: 4, faces: 2

o obj36
v 31 20 1
v 31 15 1
v 49 20 1
v 49 15 1
vn 0 0 1
vt 0.625 0
vt 0.625 0.07812
vt 0.90625 0
vt 0.90625 0.07812
usemtl mat0
f 243/195/66 244/196/66 245/197/66
f 244/196/66 246/198/66 245/197/66
# Vertices: 4, normals: 1, texture coordinates: 4, faces: 2

o obj37
v 49 20 -5
v 49 15 -5
v 31 20 -5
v 31 15 -5
vn 0 0 -1
vt 0.625 0.09375
vt 0.625 0.17188
vt 0.90625 0.09375
vt 0.90625 0.17188
usemtl mat0
f 247/199/67 248/200/67 249/201/67
f 248/200/67 250/202/67 249/201/67
# Vertices: 4, normals: 1, texture coordinates: 4, faces: 2

o obj38
v 48 19 0
v 48 3 0
v 48 19 -16
v 48 3 -16
vn 1 0 0
vt 0 0.4375
vt 0 0.6875
vt 0.25 0.4375
vt 0.25 0.6875
usemtl mat0
f 251/203/68 252/204/68 253/205/68
f 252/204/68 254/206/68 253/205/68
# Vertices: 4, normals: 1, texture coordinates: 4, faces: 2

o obj39
v 32 19 -16
v 32 3 -16
v 32 19 0
v 32 3 0
vn -1 0 0
vt 0 0.1875
vt 0 0.4375
vt 0.25 0.1875
vt 0.25 0.4375
usemtl mat0
f 255/207/69 256/208/69 257/209/69
f 256/208/69 258/210/69 257/209/69
# Vertices: 4, normals: 1, texture coordinates: 4, faces: 2

o obj40
v 32 19 -16
v 32 19 0
v 48 19 -16
v 48 19 0
vn 0 1 0
vt 0.5 0.1875
vt 0.25 0.1875
vt 0.5 0.4375
vt 0.25 0.4375
usemtl mat0
f 259/211/70 260/212/70 261/213/70
f 260/212/70 262/214/70 261/213/70
# Vertices: 4, normals: 1, texture coordinates: 4, faces: 2

o obj41
v 32 19 0
v 32 3 0
v 48 19 0
v 48 3 0
vn 0 0 1
vt 0 0.4375
vt 0 0.6875
vt 0.25 0.4375
vt 0.25 0.6875
usemtl mat0
f 263/215/71 264/216/71 265/217/71
f 264/216/71 266/218/71 265/217/71
# Vertices: 4, normals: 1, texture coordinates: 4, faces: 2

o obj42
v 48 19 -16
v 48 3 -16
v 32 19 -16
v 32 3 -16
vn 0 0 -1
vt 0 0.4375
vt 0 0.6875
vt 0.25 0.4375
vt 0.25 0.6875
usemtl mat0
f 267/219/72 268/220/72 269/221/72
f 268/220/72 270/222/72 269/221/72
# Vertices: 4, normals: 1, texture coordinates: 4, faces: 2

o obj43
v 28 14 21
v 28 7 21
v 28 14 27
v 28 7 27
vn -1 0 0
vt 0.90625 0.89062
vt 0.90625 1
vt 1 0.89062
vt 1 1
usemtl mat1
f 271/223/73 272/224/73 273/225/73
f 272/224/73 274/226/73 273/225/73
# Vertices: 4, normals: 1, texture coordinates: 4, faces: 2

o obj44
v 28 14 21
v 28 14 27
v 31 14 21
v 31 14 27
vn 0 1 0
vt 0.90625 0.95312
vt 0.8125 0.95312
vt 0.90625 1
vt 0.8125 1
usemtl mat1
f 275/227/74 276/228/74 277/229/74
f 276/228/74 278/230/74 277/229/74
# Vertices: 4, normals: 1, texture coordinates: 4, faces: 2

o obj45
v 28 7 27
v 28 7 21
v 31 7 27
v 31 7 21
vn 0 -1 0
vt 0.8125 0.95312
vt 0.90625 0.95312
vt 0.8125 0.90625
vt 0.90625 0.90625
usemtl mat1
f 279/231/75 280/232/75 281/233/75
f 280/232/75 282/234/75 281/233/75
# Vertices: 4, normals: 1, texture coordinates: 4, faces: 2

o obj46
v 28 14 27
v 28 7 27
v 31 14 27
v 31 7 27
vn 0 0 1
vt 1 0.78125
vt 1 0.89062
vt 0.95312 0.78125
vt 0.95312 0.89062
usemtl mat1
f 283/235/76 284/236/76 285/237/76
f 284/236/76 286/238/76 285/237/76
# Vertices: 4, normals: 1, texture coordinates: 4, faces: 2

o obj47
v 31 14 21
v 31 7 21
v 28 14 21
v 28 7 21
vn 0 0 -1
vt 0.95312 0.78125
vt 0.95312 0.89062
vt 1 0.78125
vt 1 0.89062
usemtl mat1
f 287/239/77 288/240/77 289/241/77
f 288/240/77 290/242/77 289/241/77
# Vertices: 4, normals: 1, texture coordinates: 4, faces: 2

o obj48
v 49 6 20
v 49 0 20
v 49 6 13
v 49 0 13
v 42 6 13
v 42 0 13
v 42 6 20
v 42 0 20
v 42 6 13
v 42 6 20
v 49 6 13
v 49 6 20
v 42 0 20
v 42 0 13
v 49 0 20
v 49 0 13
v 49 6 20
v 49 0 20
v 42 6 13
v 42 0 13
vn 1 0 0
vn -1 0 0
vn 0 1 0
vn 0 -1 0
vn 0 0 1
vn 0 0 -1
vt 0.8125 0
vt 0.8125 0.09375
vt 0.92188 0
vt 0.92188 0.09375
vt 0.70312 0
vt 0.70312 0.09375
vt 0.75 0.20312
vt 0.85938 0.20312
vt 0.75 0.09375
vt 0.85938 0.09375
vt 0 0.04688
vt 0.01562 0.04688
vt 0 0.03125
vt 0.01562 0.03125
usemtl mat1
f 291/243/78 292/244/78 293/245/78
f 292/244/78 294/246/78 293/245/78
f 295/247/79 296/248/79 297/243/79
f 296/248/79 298/244/79 297/243/79
f 299/249/80 300/250/80 301/251/80
f 300/250/80 302/252/80 301/251/80
f 303/253/81 304/254/81 305/255/81
f 304/254/81 306/256/81 305/255/81
f 297/243/82 298/244/82 307/247/82
f 298/244/82 308/248/82 307/247/82
f 293/245/83 294/246/83 309/243/83
f 294/246/83 310/244/83 309/243/83
# Vertices: 20, normals: 6, texture coordinates: 14, faces: 12

o obj49
v 36 6 20
v 36 0 20
v 36 6 13
v 36 0 13
v 29 6 13
v 29 0 13
v 29 6 20
v 29 0 20
v 29 6 13
v 29 6 20
v 36 6 13
v 36 6 20
v 29 0 20
v 29 0 13
v 36 0 20
v 36 0 13
v 29 6 20
v 29 0 20
v 36 6 13
v 36 0 13
vn 1 0 0
vn -1 0 0
vn 0 1 0
vn 0 -1 0
vn 0 0 1
vn 0 0 -1
vt 0.8125 0
vt 0.8125 0.09375
vt 0.70312 0
vt 0.70312 0.09375
vt 0.92188 0
vt 0.92188 0.09375
vt 0.75 0.09375
vt 0.85938 0.09375
vt 0.75 0.20312
vt 0.85938 0.20312
vt 0 0.04688
vt 0.01562 0.04688
vt 0 0.03125
vt 0.01562 0.03125
usemtl mat1
f 311/257/84 312/258/84 313/259/84
f 312/258/84 314/260/84 313/259/84
f 315/261/85 316/262/85 317/257/85
f 316/262/85 318/258/85 317/257/85
f 319/263/86 320/264/86 321/265/86
f 320/264/86 322/266/86 321/265/86
f 323/267/87 324/268/87 325/269/87
f 324/268/87 326/270/87 325/269/87
f 327/259/88 328/260/88 311/257/88
f 328/260/88 312/258/88 311/257/88
f 329/257/89 330/258/89 315/261/89
f 330/258/89 316/262/89 315/261/89
# Vertices: 20, normals: 6, texture coordinates: 14, faces: 12

o obj50
v 36 6 35
v 36 0 35
v 36 6 28
v 36 0 28
v 29 6 28
v 29 0 28
v 29 6 35
v 29 0 35
v 29 6 28
v 29 6 35
v 36 6 28
v 36 6 35
v 29 0 35
v 29 0 28
v 36 0 35
v 36 0 28
v 36 6 35
v 36 0 35
v 29 6 28
v 29 0 28
vn 1 0 0
vn -1 0 0
vn 0 1 0
vn 0 -1 0
vn 0 0 1
vn 0 0 -1
vt 0.70312 0
vt 0.70312 0.09375
vt 0.8125 0
vt 0.8125 0.09375
vt 0.92188 0
vt 0.92188 0.09375
vt 0.85938 0.09375
vt 0.75 0.09375
vt 0.85938 0.20312
vt 0.75 0.20312
vt 0 0.04688
vt 0.01562 0.04688
vt 0 0.03125
vt 0.01562 0.03125
usemtl mat1
f 331/271/90 332/272/90 333/273/90
f 332/272/90 334/274/90 333/273/90
f 335/273/91 336/274/91 337/275/91
f 336/274/91 338/276/91 337/275/91
f 339/277/92 340/278/92 341/279/92
f 340/278/92 342/280/92 341/279/92
f 343/281/93 344/282/93 345/283/93
f 344/282/93 346/284/93 345/283/93
f 337/275/94 338/276/94 347/273/94
f 338/276/94 348/274/94 347/273/94
f 333/273/95 334/274/95 349/271/95
f 334/274/95 350/272/95 349/271/95
# Vertices: 20, normals: 6, texture coordinates: 14, faces: 12

o obj51
v 35 18 34
v 35 6 34
v 35 18 29
v 35 6 29
vn 1 0 0
vt 1 0.51562
vt 1 0.70312
vt 0.92188 0.51562
vt 0.92188 0.70312
usemtl mat1
f 351/285/96 352/286/96 353/287/96
f 352/286/96 354/288/96 353/287/96
# Vertices: 4, normals: 1, texture coordinates: 4, faces: 2

o obj52
v 30 18 29
v 30 6 29
v 30 18 34
v 30 6 34
vn -1 0 0
vt 0.92188 0
vt 0.92188 0.1875
vt 1 0
vt 1 0.1875
usemtl mat1
f 355/289/97 356/290/97 357/291/97
f 356/290/97 358/292/97 357/291/97
# Vertices: 4, normals: 1, texture coordinates: 4, faces: 2

o obj53
v 30 18 34
v 30 6 34
v 35 18 34
v 35 6 34
vn 0 0 1
vt 1 0
vt 1 0.1875
vt 0.92188 0
vt 0.92188 0.1875
usemtl mat1
f 359/293/98 360/294/98 361/295/98
f 360/294/98 362/296/98 361/295/98
# Vertices: 4, normals: 1, texture coordinates: 4, faces: 2

o obj54
v 35 18 29
v 35 6 29
v 30 18 29
v 30 6 29
vn 0 0 -1
vt 0.92188 0.51562
vt 0.92188 0.70312
vt 1 0.51562
vt 1 0.70312
usemtl mat1
f 363/297/99 364/298/99 365/299/99
f 364/298/99 366/300/99 365/299/99
# Vertices: 4, normals: 1, texture coordinates: 4, faces: 2

o obj55
v 49 15 35
v 49 9 35
v 49 15 13
v 49 9 13
v 29 15 13
v 29 9 13
v 29 15 35
v 29 9 35
v 29 15 13
v 29 15 35
v 49 15 13
v 49 15 35
v 29 9 35
v 29 9 13
v 49 9 35
v 49 9 13
v 49 15 35
v 49 9 35
v 49 15 13
v 49 9 13
v 29 15 13
v 29 9 13
vn 1 0 0
vn -1 0 0
vn 0 1 0
vn 0 -1 0
vn 0 0 1
vn 0 0 -1
vt 0 0.09375
vt 0 0.1875
vt 0.34375 0.09375
vt 0.34375 0.1875
vt 0 0
vt 0.34375 0
vt 0.6875 0.09375
vt 0.6875 0.40625
vt 0.34375 0.40625
vt 0 0.65625
vt 0.34375 0.65625
vt 0 0.34375
vt 0.34375 0.34375
vt 0.65625 0
vt 0.65625 0.09375
usemtl mat1
f 367/301/100 368/302/100 369/303/100
f 368/302/100 370/304/100 369/303/100
f 371/305/101 372/301/101 373/306/101
f 372/301/101 374/303/101 373/306/101
f 375/307/102 376/303/102 377/308/102
f 376/303/102 378/309/102 377/308/102
f 379/310/103 380/311/103 381/312/103
f 380/311/103 382/313/103 381/312/103
f 373/306/104 374/303/104 383/314/104
f 374/303/104 384/315/104 383/314/104
f 385/306/105 386/303/105 387/314/105
f 386/303/105 388/315/105 387/314/105
# Vertices: 22, normals: 6, texture coordinates: 15, faces: 12

o obj56
v 35 18 19
v 35 6 19
v 35 18 14
v 35 6 14
vn 1 0 0
vt 0.92188 0.51562
vt 0.92188 0.70312
vt 1 0.51562
vt 1 0.70312
usemtl mat1
f 389/316/106 390/317/106 391/318/106
f 390/317/106 392/319/106 391/318/106
# Vertices: 4, normals: 1, texture coordinates: 4, faces: 2

o obj57
v 30 18 14
v 30 6 14
v 30 18 19
v 30 6 19
vn -1 0 0
vt 1 0
vt 1 0.1875
vt 0.92188 0
vt 0.92188 0.1875
usemtl mat1
f 393/320/107 394/321/107 395/322/107
f 394/321/107 396/323/107 395/322/107
# Vertices: 4, normals: 1, texture coordinates: 4, faces: 2

o obj58
v 30 18 19
v 30 6 19
v 35 18 19
v 35 6 19
vn 0 0 1
vt 1 0.51562
vt 1 0.70312
vt 0.92188 0.51562
vt 0.92188 0.70312
usemtl mat1
f 397/324/108 398/325/108 399/326/108
f 398/325/108 400/327/108 399/326/108
# Vertices: 4, normals: 1, texture coordinates: 4, faces: 2

o obj59
v 35 18 14
v 35 6 14
v 30 18 14
v 30 6 14
vn 0 0 -1
vt 0.92188 0
vt 0.92188 0.1875
vt 1 0
vt 1 0.1875
usemtl mat1
f 401/328/109 402/329/109 403/330/109
f 402/329/109 404/331/109 403/330/109
# Vertices: 4, normals: 1, texture coordinates: 4, faces: 2

o obj60
v 48 18 19
v 48 6 19
v 48 18 14
v 48 6 14
vn 1 0 0
vt 0.92188 0
vt 0.92188 0.1875
vt 1 0
vt 1 0.1875
usemtl mat1
f 405/332/110 406/333/110 407/334/110
f 406/333/110 408/335/110 407/334/110
# Vertices: 4, normals: 1, texture coordinates: 4, faces: 2

o obj61
v 43 18 14
v 43 6 14
v 43 18 19
v 43 6 19
vn -1 0 0
vt 1 0.51562
vt 1 0.70312
vt 0.92188 0.51562
vt 0.92188 0.70312
usemtl mat1
f 409/336/111 410/337/111 411/338/111
f 410/337/111 412/339/111 411/338/111
# Vertices: 4, normals: 1, texture coordinates: 4, faces: 2

o obj62
v 43 18 19
v 43 6 19
v 48 18 19
v 48 6 19
vn 0 0 1
vt 0.92188 0.51562
vt 0.92188 0.70312
vt 1 0.51562
vt 1 0.70312
usemtl mat1
f 413/340/112 414/341/112 415/342/112
f 414/341/112 416/343/112 415/342/112
# Vertices: 4, normals: 1, texture coordinates: 4, faces: 2

o obj63
v 48 18 14
v 48 6 14
v 43 18 14
v 43 6 14
vn 0 0 -1
vt 1 0
vt 1 0.1875
vt 0.92188 0
vt 0.92188 0.1875
usemtl mat1
f 417/344/113 418/345/113 419/346/113
f 418/345/113 420/347/113 419/346/113
# Vertices: 4, normals: 1, texture coordinates: 4, faces: 2

o obj64
v 48 18 34
v 48 6 34
v 48 18 29
v 48 6 29
vn 1 0 0
vt 1 0
vt 1 0.1875
vt 0.92188 0
vt 0.92188 0.1875
usemtl mat1
f 421/348/114 422/349/114 423/350/114
f 422/349/114 424/351/114 423/350/114
# Vertices: 4, normals: 1, texture coordinates: 4, faces: 2

o obj65
v 43 18 29
v 43 6 29
v 43 18 34
v 43 6 34
vn -1 0 0
vt 0.92188 0.51562
vt 0.92188 0.70312
vt 1 0.51562
vt 1 0.70312
usemtl mat1
f 425/352/115 426/353/115 427/354/115
f 426/353/115 428/355/115 427/354/115
# Vertices: 4, normals: 1, texture coordinates: 4, faces: 2

o obj66
v 43 18 34
v 43 6 34
v 48 18 34
v 48 6 34
vn 0 0 1
vt 0.92188 0
vt 0.92188 0.1875
vt 1 0
vt 1 0.1875
usemtl mat1
f 429/356/116 430/357/116 431/358/116
f 430/357/116 432/359/116 431/358/116
# Vertices: 4, normals: 1, texture coordinates: 4, faces: 2

o obj67
v 48 18 29
v 48 6 29
v 43 18 29
v 43 6 29
vn 0 0 -1
vt 1 0.51562
vt 1 0.70312
vt 0.92188 0.51562
vt 0.92188 0.70312
usemtl mat1
f 433/360/117 434/361/117 435/362/117
f 434/361/117 436/363/117 435/362/117
# Vertices: 4, normals: 1, texture coordinates: 4, faces: 2

o obj68
v 49 6 35
v 49 0 35
v 49 6 28
v 49 0 28
v 42 6 28
v 42 0 28
v 42 6 35
v 42 0 35
v 42 6 28
v 42 6 35
v 49 6 28
v 49 6 35
v 42 0 35
v 42 0 28
v 49 0 35
v 49 0 28
v 42 6 35
v 42 0 35
v 49 6 28
v 49 0 28
vn 1 0 0
vn -1 0 0
vn 0 1 0
vn 0 -1 0
vn 0 0 1
vn 0 0 -1
vt 0.92188 0
vt 0.92188 0.09375
vt 0.8125 0
vt 0.8125 0.09375
vt 0.70312 0
vt 0.70312 0.09375
vt 0.85938 0.20312
vt 0.75 0.20312
vt 0.85938 0.09375
vt 0.75 0.09375
vt 0 0.04688
vt 0.01562 0.04688
vt 0 0.03125
vt 0.01562 0.03125
usemtl mat1
f 437/364/118 438/365/118 439/366/118
f 438/365/118 440/367/118 439/366/118
f 441/366/119 442/367/119 443/368/119
f 442/367/119 444/369/119 443/368/119
f 445/370/120 446/371/120 447/372/120
f 446/371/120 448/373/120 447/372/120
f 449/374/121 450/375/121 451/376/121
f 450/375/121 452/377/121 451/376/121
f 453/366/122 454/367/122 437/364/122
f 454/367/122 438/365/122 437/364/122
f 455/368/123 456/369/123 441/366/123
f 456/369/123 442/367/123 441/366/123
# Vertices: 20, normals: 6, texture coordinates: 14, faces: 12

o obj69
v 48 5 34
v 48 1 34
v 48 5 14
v 48 1 14
v 30 5 14
v 30 1 14
v 30 5 34
v 30 1 34
v 30 5 14
v 30 5 34
v 48 5 14
v 48 5 34
v 30 1 34
v 30 1 14
v 48 1 34
v 48 1 14
v 30 5 34
v 30 1 34
v 48 5 34
v 48 1 34
v 48 5 14
v 48 1 14
v 30 5 14
v 30 1 14
vn 1 0 0
vn -1 0 0
vn 0 1 0
vn 0 -1 0
vn 0 0 1
vn 0 0 -1
vt 0 0.1875
vt 0 0.25
vt 0.3125 0.1875
vt 0.3125 0.25
vt 0.15625 0.04688
vt 0.14062 0.04688
vt 0.15625 0.0625
vt 0.14062 0.0625
vt 0.01562 0.04688
vt 0.03125 0.04688
vt 0.01562 0.03125
vt 0.03125 0.03125
vt 0.01562 0.1875
vt 0.01562 0.25
vt 0.29688 0.1875
vt 0.29688 0.25
usemtl mat1
f 457/378/124 458/379/124 459/380/124
f 458/379/124 460/381/124 459/380/124
f 461/378/125 462/379/125 463/380/125
f 462/379/125 464/381/125 463/380/125
f 465/382/126 466/383/126 467/384/126
f 466/383/126 468/385/126 467/384/126
f 469/386/127 470/387/127 471/388/127
f 470/387/127 472/389/127 471/388/127
f 473/390/128 474/391/128 475/392/128
f 474/391/128 476/393/128 475/392/128
f 477/390/129 478/391/129 479/392/129
f 478/391/129 480/393/129 479/392/129
# Vertices: 24, normals: 6, texture coordinates: 16, faces: 12

o obj70
v 48 21 19
v 48 18 19
v 48 21 14
v 48 18 14
v 30 21 14
v 30 18 14
v 30 21 19
v 30 18 19
v 30 21 14
v 30 21 19
v 48 21 14
v 48 21 19
v 30 18 19
v 30 18 14
v 30 21 19
v 30 18 19
v 48 21 19
v 48 18 19
v 48 21 14
v 48 18 14
v 30 21 14
v 30 18 14
vn 1 0 0
vn -1 0 0
vn 0 1 0
vn 0 -1 0
vn 0 0 1
vn 0 0 -1
vt 0.92188 0.1875
vt 0.92188 0.23438
vt 1 0.1875
vt 1 0.23438
vt 0.92188 0.51562
vt 1 0.51562
vt 0 0.29688
vt 0 0.34375
vt 0.28125 0.29688
vt 0.28125 0.34375
vt 0 0.25
vt 0.28125 0.25
usemtl mat1
f 481/394/130 482/395/130 483/396/130
f 482/395/130 484/397/130 483/396/130
f 485/396/131 486/397/131 487/394/131
f 486/397/131 488/395/131 487/394/131
f 489/395/132 490/397/132 491/398/132
f 490/397/132 492/399/132 491/398/132
f 493/398/133 494/399/133 482/395/133
f 494/399/133 484/397/133 482/395/133
f 495/400/134 496/401/134 497/402/134
f 496/401/134 498/403/134 497/402/134
f 499/404/135 500/400/135 501/405/135
f 500/400/135 502/402/135 501/405/135
# Vertices: 22, normals: 6, texture coordinates: 12, faces: 12

o obj71
v 48 21 26
v 48 15 26
v 48 21 22
v 48 15 22
vn 1 0 0
vt 0.85938 0.09375
vt 0.85938 0.1875
vt 0.92188 0.09375
vt 0.92188 0.1875
usemtl mat1
f 503/406/136 504/407/136 505/408/136
f 504/407/136 506/409/136 505/408/136
# Vertices: 4, normals: 1, texture coordinates: 4, faces: 2

o obj72
v 30 21 22
v 30 15 22
v 30 21 26
v 30 15 26
vn -1 0 0
vt 0.85938 0.09375
vt 0.85938 0.1875
vt 0.92188 0.09375
vt 0.92188 0.1875
usemtl mat1
f 507/410/137 508/411/137 509/412/137
f 508/411/137 510/413/137 509/412/137
# Vertices: 4, normals: 1, texture coordinates: 4, faces: 2

o obj73
v 30 21 22
v 30 21 26
v 48 21 22
v 48 21 26
vn 0 1 0
vt 0.92188 0.23438
vt 0.85938 0.23438
vt 0.92188 0.51562
vt 0.85938 0.51562
usemtl mat1
f 511/414/138 512/415/138 513/416/138
f 512/415/138 514/417/138 513/416/138
# Vertices: 4, normals: 1, texture coordinates: 4, faces: 2

o obj74
v 30 21 26
v 30 15 26
v 48 21 26
v 48 15 26
vn 0 0 1
vt 0.34375 0.40625
vt 0.34375 0.5
vt 0.625 0.40625
vt 0.625 0.5
usemtl mat1
f 515/418/139 516/419/139 517/420/139
f 516/419/139 518/421/139 517/420/139
# Vertices: 4, normals: 1, texture coordinates: 4, faces: 2

o obj75
v 48 21 22
v 48 15 22
v 30 21 22
v 30 15 22
vn 0 0 -1
vt 0.34375 0.40625
vt 0.34375 0.5
vt 0.625 0.40625
vt 0.625 0.5
usemtl mat1
f 519/422/140 520/423/140 521/424/140
f 520/423/140 522/425/140 521/424/140
# Vertices: 4, normals: 1, texture coordinates: 4, faces: 2

o obj76
v 48 21 34
v 48 18 34
v 48 21 29
v 48 18 29
v 30 21 29
v 30 18 29
v 30 21 34
v 30 18 34
v 30 21 29
v 30 21 34
v 48 21 29
v 48 21 34
v 30 18 34
v 30 18 29
v 30 21 34
v 30 18 34
v 48 21 34
v 48 18 34
v 48 21 29
v 48 18 29
v 30 21 29
v 30 18 29
vn 1 0 0
vn -1 0 0
vn 0 1 0
vn 0 -1 0
vn 0 0 1
vn 0 0 -1
vt 1 0.1875
vt 1 0.23438
vt 0.92188 0.1875
vt 0.92188 0.23438
vt 1 0.51562
vt 0.92188 0.51562
vt 0 0.25
vt 0 0.29688
vt 0.28125 0.25
vt 0.28125 0.29688
vt 0 0.34375
vt 0.28125 0.34375
usemtl mat1
f 523/426/141 524/427/141 525/428/141
f 524/427/141 526/429/141 525/428/141
f 527/428/142 528/429/142 529/426/142
f 528/429/142 530/427/142 529/426/142
f 531/427/143 532/429/143 533/430/143
f 532/429/143 534/431/143 533/430/143
f 535/430/144 536/431/144 524/427/144
f 536/431/144 526/429/144 524/427/144
f 537/432/145 538/433/145 539/434/145
f 538/433/145 540/435/145 539/434/145
f 541/433/146 542/436/146 543/435/146
f 542/436/146 544/437/146 543/435/146
# Vertices: 22, normals: 6, texture coordinates: 12, faces: 12

o obj77
v 47 20 33
v 47 4 33
v 47 20 15
v 47 4 15
vn 1 0 0
vt 0.53125 0.75
vt 0.53125 1
vt 0.8125 0.75
vt 0.8125 1
usemtl mat1
f 545/438/147 546/439/147 547/440/147
f 546/439/147 548/441/147 547/440/147
# Vertices: 4, normals: 1, texture coordinates: 4, faces: 2

o obj78
v 31 20 15
v 31 4 15
v 31 20 33
v 31 4 33
vn -1 0 0
vt 0 0.75
vt 0 1
vt 0.28125 0.75
vt 0.28125 1
usemtl mat1
f 549/442/148 550/443/148 551/444/148
f 550/443/148 552/445/148 551/444/148
# Vertices: 4, normals: 1, texture coordinates: 4, faces: 2

o obj79
v 31 20 15
v 31 20 33
v 47 20 15
v 47 20 33
vn 0 1 0
vt 0.625 0.5
vt 0.34375 0.5
vt 0.625 0.75
vt 0.34375 0.75
usemtl mat1
f 553/446/149 554/447/149 555/448/149
f 554/447/149 556/449/149 555/448/149
# Vertices: 4, normals: 1, texture coordinates: 4, faces: 2

o obj80
v 31 20 33
v 31 4 33
v 47 20 33
v 47 4 33
vn 0 0 1
vt 0.28125 0.75
vt 0.28125 1
vt 0.53125 0.75
vt 0.53125 1
usemtl mat1
f 557/450/150 558/451/150 559/452/150
f 558/451/150 560/453/150 559/452/150
# Vertices: 4, normals: 1, texture coordinates: 4, faces: 2

o obj81
v 47 20 15
v 47 4 15
v 31 20 15
v 31 4 15
vn 0 0 -1
vt 0.28125 0.75
vt 0.28125 1
vt 0.53125 0.75
vt 0.53125 1
usemtl mat1
f 561/454/151 562/455/151 563/456/151
f 562/455/151 564/457/151 563/456/151
# Vertices: 4, normals: 1, texture coordinates: 4, faces: 2

o obj82
v 0.99479623 10.02322312 38.00999832
v 4 7.01801935 38.00999832
v 0.99479623 10.02322312 41.00999832
v 4 7.01801935 41.00999832
vn -1 0 0
vt 0.125 0.42188
vt 0.125 0.5
vt 0.07812 0.42188
vt 0.07812 0.5
usemtl mat2
f 565/458/152 566/459/152 567/460/152
f 566/459/152 568/461/152 567/460/152
# Vertices: 4, normals: 1, texture coordinates: 4, faces: 2

o obj83
v 4 7.01801935 41.00999832
v 4 7.01801935 38.00999832
v 7.00520377 10.02322312 41.00999832
v 7.00520377 10.02322312 38.00999832
vn 0 -1 0
vt 0.21875 0.375
vt 0.21875 0.42188
vt 0.14062 0.375
vt 0.14062 0.42188
usemtl mat2
f 569/462/153 570/463/153 571/464/153
f 570/463/153 572/465/153 571/464/153
# Vertices: 4, normals: 1, texture coordinates: 4, faces: 2

o obj84
v 4 13.02842689 38.00999832
v 7.00520377 10.02322312 38.00999832
v 0.99479623 10.02322312 38.00999832
v 4 7.01801935 38.00999832
vn 0 0 -1
vt 0 0.42188
vt 0 0.5
vt 0.07812 0.42188
vt 0.07812 0.5
usemtl mat2
f 573/466/154 574/467/154 575/468/154
f 574/467/154 576/469/154 575/468/154
# Vertices: 4, normals: 1, texture coordinates: 4, faces: 2

o obj85
v 7 16 41
v 7 10 41
v 7 16 38
v 7 10 38
vn 1 0 0
vt 0.14062 0.32812
vt 0.14062 0.42188
vt 0.09375 0.32812
vt 0.09375 0.42188
usemtl mat2
f 577/470/155 578/471/155 579/472/155
f 578/471/155 580/473/155 579/472/155
# Vertices: 4, normals: 1, texture coordinates: 4, faces: 2

o obj86
v 1 16 38
v 1 10 38
v 1 16 41
v 1 10 41
vn -1 0 0
vt 0.14062 0.32812
vt 0.14062 0.42188
vt 0.09375 0.32812
vt 0.09375 0.42188
usemtl mat2
f 581/474/156 582/475/156 583/476/156
f 582/475/156 584/477/156 583/476/156
# Vertices: 4, normals: 1, texture coordinates: 4, faces: 2

o obj87
v 1 16 38
v 1 16 41
v 7 16 38
v 7 16 41
vn 0 1 0
vt 0.14062 0.32812
vt 0.14062 0.375
vt 0.23438 0.32812
vt 0.23438 0.375
usemtl mat2
f 585/478/157 586/479/157 587/480/157
f 586/479/157 588/481/157 587/480/157
# Vertices: 4, normals: 1, texture coordinates: 4, faces: 2

o obj88
v 7 16 38
v 7 10 38
v 1 16 38
v 1 10 38
vn 0 0 -1
vt 0 0.32812
vt 0 0.42188
vt 0.09375 0.32812
vt 0.09375 0.42188
usemtl mat2
f 589/482/158 590/483/158 591/484/158
f 590/483/158 592/485/158 591/484/158
# Vertices: 4, normals: 1, texture coordinates: 4, faces: 2

o obj89
v 16 7 61
v 16 0 61
v 16 7 54
v 16 0 54
v 9 7 54
v 9 0 54
v 9 7 61
v 9 0 61
v 9 7 54
v 9 7 61
v 16 7 54
v 16 7 61
v 9 0 61
v 9 0 54
v 16 0 61
v 16 0 54
v 9 7 61
v 9 0 61
v 16 7 61
v 16 0 61
v 16 7 54
v 16 0 54
vn 1 0 0
vn -1 0 0
vn 0 1 0
vn 0 -1 0
vn 0 0 1
vn 0 0 -1
vt 1 0.10938
vt 1 0.21875
vt 0.89062 0.10938
vt 0.89062 0.21875
vt 0.89062 0.4375
vt 0.89062 0.54688
vt 0.78125 0.4375
vt 0.78125 0.54688
vt 0.89062 0.32812
vt 1 0.32812
vt 1 0.4375
vt 0.89062 0
vt 1 0
usemtl mat2
f 593/486/159 594/487/159 595/488/159
f 594/487/159 596/489/159 595/488/159
f 597/490/160 598/491/160 599/492/160
f 598/491/160 600/493/160 599/492/160
f 601/494/161 602/490/161 603/495/161
f 602/490/161 604/496/161 603/495/161
f 605/494/162 606/489/162 607/495/162
f 606/489/162 608/487/162 607/495/162
f 609/497/163 610/488/163 611/498/163
f 610/488/163 612/486/163 611/498/163
f 613/492/164 614/493/164 597/490/164
f 614/493/164 598/491/164 597/490/164
# Vertices: 22, normals: 6, texture coordinates: 13, faces: 12

o obj90
v 16 7 46
v 16 0 46
v 16 7 39
v 16 0 39
v 9 7 39
v 9 0 39
v 9 7 46
v 9 0 46
v 9 7 39
v 16 7 39
v 16 7 46
v 9 0 46
v 9 0 39
v 16 0 46
v 16 0 39
v 16 7 46
v 16 0 46
v 16 7 39
v 16 0 39
v 9 7 39
v 9 0 39
vn 1 0 0
vn -1 0 0
vn 0 1 0
vn 0 -1 0
vn 0 0 1
vn 0 0 -1
vt 0.89062 0
vt 0.89062 0.10938
vt 1 0
vt 1 0.10938
vt 0.78125 0.4375
vt 0.78125 0.54688
vt 0.89062 0.4375
vt 0.89062 0.54688
vt 0.89062 0.32812
vt 1 0.32812
vt 1 0.4375
vt 0.89062 0.21875
vt 1 0.21875
usemtl mat2
f 615/499/165 616/500/165 617/501/165
f 616/500/165 618/502/165 617/501/165
f 619/503/166 620/504/166 621/505/166
f 620/504/166 622/506/166 621/505/166
f 623/507/167 621/505/167 624/508/167
f 621/505/167 625/509/167 624/508/167
f 626/510/168 627/507/168 628/511/168
f 627/507/168 629/508/168 628/511/168
f 621/505/169 622/506/169 630/503/169
f 622/506/169 631/504/169 630/503/169
f 632/502/170 633/511/170 634/500/170
f 633/511/170 635/510/170 634/500/170
# Vertices: 21, normals: 6, texture coordinates: 13, faces: 12

o obj91
v -1 7 46
v -1 0 46
v -1 7 39
v -1 0 39
v -8 7 39
v -8 0 39
v -8 7 46
v -8 0 46
v -8 7 39
v -8 7 46
v -1 7 39
v -1 7 46
v -8 0 46
v -8 0 39
v -1 0 46
v -1 0 39
v -8 7 46
v -8 0 46
v -1 7 39
v -1 0 39
v -8 7 39
v -8 0 39
vn 1 0 0
vn -1 0 0
vn 0 1 0
vn 0 -1 0
vn 0 0 1
vn 0 0 -1
vt 0.89062 0.4375
vt 0.89062 0.54688
vt 0.78125 0.4375
vt 0.78125 0.54688
vt 1 0.10938
vt 1 0.21875
vt 0.89062 0.10938
vt 0.89062 0.21875
vt 0.89062 0.32812
vt 1 0.32812
vt 1 0.4375
vt 0.89062 0
vt 1 0
usemtl mat2
f 636/512/171 637/513/171 638/514/171
f 637/513/171 639/515/171 638/514/171
f 640/516/172 641/517/172 642/518/172
f 641/517/172 643/519/172 642/518/172
f 644/520/173 645/512/173 646/521/173
f 645/512/173 647/522/173 646/521/173
f 648/517/174 649/521/174 650/519/174
f 649/521/174 651/520/174 650/519/174
f 652/514/175 653/515/175 636/512/175
f 653/515/175 637/513/175 636/512/175
f 654/523/176 655/518/176 656/524/176
f 655/518/176 657/516/176 656/524/176
# Vertices: 22, normals: 6, texture coordinates: 13, faces: 12

o obj92
v 15 10 45
v 15 7 45
v 15 10 40
v 15 7 40
vn 1 0 0
vt 0.71875 0
vt 0.71875 0.04688
vt 0.79688 0
vt 0.79688 0.04688
usemtl mat2
f 658/525/177 659/526/177 660/527/177
f 659/526/177 661/528/177 660/527/177
# Vertices: 4, normals: 1, texture coordinates: 4, faces: 2

o obj93
v 10 10 40
v 10 7 40
v 10 10 45
v 10 7 45
vn -1 0 0
vt 0.71875 0
vt 0.71875 0.04688
vt 0.79688 0
vt 0.79688 0.04688
usemtl mat2
f 662/529/178 663/530/178 664/531/178
f 663/530/178 665/532/178 664/531/178
# Vertices: 4, normals: 1, texture coordinates: 4, faces: 2

o obj94
v 10 10 45
v 10 7 45
v 15 10 45
v 15 7 45
vn 0 0 1
vt 0.79688 0
vt 0.79688 0.04688
vt 0.71875 0
vt 0.71875 0.04688
usemtl mat2
f 666/533/179 667/534/179 668/535/179
f 667/534/179 669/536/179 668/535/179
# Vertices: 4, normals: 1, texture coordinates: 4, faces: 2

o obj95
v 15 10 40
v 15 7 40
v 10 10 40
v 10 7 40
vn 0 0 -1
vt 0.79688 0
vt 0.79688 0.04688
vt 0.71875 0
vt 0.71875 0.04688
usemtl mat2
f 670/537/180 671/538/180 672/539/180
f 671/538/180 673/540/180 672/539/180
# Vertices: 4, normals: 1, texture coordinates: 4, faces: 2

o obj96
v -2 10 45
v -2 7 45
v -2 10 40
v -2 7 40
vn 1 0 0
vt 0.79688 0
vt 0.79688 0.04688
vt 0.71875 0
vt 0.71875 0.04688
usemtl mat2
f 674/541/181 675/542/181 676/543/181
f 675/542/181 677/544/181 676/543/181
# Vertices: 4, normals: 1, texture coordinates: 4, faces: 2

o obj97
v -7 10 40
v -7 7 40
v -7 10 45
v -7 7 45
vn -1 0 0
vt 0.79688 0
vt 0.79688 0.04688
vt 0.71875 0
vt 0.71875 0.04688
usemtl mat2
f 678/545/182 679/546/182 680/547/182
f 679/546/182 681/548/182 680/547/182
# Vertices: 4, normals: 1, texture coordinates: 4, faces: 2

o obj98
v -7 10 45
v -7 7 45
v -2 10 45
v -2 7 45
vn 0 0 1
vt 0.71875 0
vt 0.71875 0.04688
vt 0.79688 0
vt 0.79688 0.04688
usemtl mat2
f 682/549/183 683/550/183 684/551/183
f 683/550/183 685/552/183 684/551/183
# Vertices: 4, normals: 1, texture coordinates: 4, faces: 2

o obj99
v -2 10 40
v -2 7 40
v -7 10 40
v -7 7 40
vn 0 0 -1
vt 0.71875 0
vt 0.71875 0.04688
vt 0.79688 0
vt 0.79688 0.04688
usemtl mat2
f 686/553/184 687/554/184 688/555/184
f 687/554/184 689/556/184 688/555/184
# Vertices: 4, normals: 1, texture coordinates: 4, faces: 2

o obj100
v 15 5 60
v 15 1 60
v 15 5 40
v 15 1 40
v -7 5 40
v -7 1 40
v -7 5 60
v -7 1 60
v -7 5 40
v -7 5 60
v 15 5 40
v 15 5 60
v -7 1 60
v -7 1 40
v 15 1 60
v 15 1 40
v -7 5 60
v -7 1 60
v 15 5 40
v 15 1 40
vn 1 0 0
vn -1 0 0
vn 0 1 0
vn 0 -1 0
vn 0 0 1
vn 0 0 -1
vt 0.34375 0.07812
vt 0.34375 0.14062
vt 0.65625 0.07812
vt 0.65625 0.14062
vt 0.01562 0.07812
vt 0.01562 0.09375
vt 0.03125 0.07812
vt 0.03125 0.09375
vt 0.01562 0.14062
vt 0.01562 0.15625
vt 0.03125 0.14062
vt 0.03125 0.15625
vt 0 0.07812
vt 0 0.14062
usemtl mat2
f 690/557/185 691/558/185 692/559/185
f 691/558/185 693/560/185 692/559/185
f 694/557/186 695/558/186 696/559/186
f 695/558/186 697/560/186 696/559/186
f 698/561/187 699/562/187 700/563/187
f 699/562/187 701/564/187 700/563/187
f 702/565/188 703/566/188 704/567/188
f 703/566/188 705/568/188 704/567/188
f 706/569/189 707/570/189 690/557/189
f 707/570/189 691/558/189 690/557/189
f 708/569/190 709/570/190 694/557/190
f 709/570/190 695/558/190 694/557/190
# Vertices: 20, normals: 6, texture coordinates: 14, faces: 12

o obj101
v -1 7 61
v -1 0 61
v -1 7 54
v -1 0 54
v -8 7 54
v -8 0 54
v -8 7 61
v -8 0 61
v -8 7 54
v -8 7 61
v -1 7 54
v -1 7 61
v -8 0 61
v -8 0 54
v -1 0 61
v -1 0 54
v -8 7 61
v -8 0 61
v -1 7 61
v -1 0 61
v -8 7 54
v -8 0 54
vn 1 0 0
vn -1 0 0
vn 0 1 0
vn 0 -1 0
vn 0 0 1
vn 0 0 -1
vt 0.78125 0.4375
vt 0.78125 0.54688
vt 0.89062 0.4375
vt 0.89062 0.54688
vt 0.89062 0
vt 0.89062 0.10938
vt 1 0
vt 1 0.10938
vt 0.89062 0.32812
vt 1 0.32812
vt 1 0.4375
vt 1 0.21875
vt 0.89062 0.21875
usemtl mat2
f 710/571/191 711/572/191 712/573/191
f 711/572/191 713/574/191 712/573/191
f 714/575/192 715/576/192 716/577/192
f 715/576/192 717/578/192 716/577/192
f 718/579/193 719/573/193 720/580/193
f 719/573/193 721/581/193 720/580/193
f 722/580/194 723/582/194 724/579/194
f 723/582/194 725/583/194 724/579/194
f 726/578/195 727/582/195 728/576/195
f 727/582/195 729/583/195 728/576/195
f 712/573/196 713/574/196 730/571/196
f 713/574/196 731/572/196 730/571/196
# Vertices: 22, normals: 6, texture coordinates: 13, faces: 12

o obj102
v -2 10 60
v -2 7 60
v -2 10 55
v -2 7 55
vn 1 0 0
vt 0.71875 0
vt 0.71875 0.04688
vt 0.79688 0
vt 0.79688 0.04688
usemtl mat2
f 732/584/197 733/585/197 734/586/197
f 733/585/197 735/587/197 734/586/197
# Vertices: 4, normals: 1, texture coordinates: 4, faces: 2

o obj103
v -7 10 55
v -7 7 55
v -7 10 60
v -7 7 60
vn -1 0 0
vt 0.71875 0
vt 0.71875 0.04688
vt 0.79688 0
vt 0.79688 0.04688
usemtl mat2
f 736/588/198 737/589/198 738/590/198
f 737/589/198 739/591/198 738/590/198
# Vertices: 4, normals: 1, texture coordinates: 4, faces: 2

o obj104
v -7 10 60
v -7 7 60
v -2 10 60
v -2 7 60
vn 0 0 1
vt 0.79688 0
vt 0.79688 0.04688
vt 0.71875 0
vt 0.71875 0.04688
usemtl mat2
f 740/592/199 741/593/199 742/594/199
f 741/593/199 743/595/199 742/594/199
# Vertices: 4, normals: 1, texture coordinates: 4, faces: 2

o obj105
v -2 10 55
v -2 7 55
v -7 10 55
v -7 7 55
vn 0 0 -1
vt 0.79688 0
vt 0.79688 0.04688
vt 0.71875 0
vt 0.71875 0.04688
usemtl mat2
f 744/596/200 745/597/200 746/598/200
f 745/597/200 747/599/200 746/598/200
# Vertices: 4, normals: 1, texture coordinates: 4, faces: 2

o obj106
v 15 10 60
v 15 7 60
v 15 10 55
v 15 7 55
vn 1 0 0
vt 0.79688 0
vt 0.79688 0.04688
vt 0.71875 0
vt 0.71875 0.04688
usemtl mat2
f 748/600/201 749/601/201 750/602/201
f 749/601/201 751/603/201 750/602/201
# Vertices: 4, normals: 1, texture coordinates: 4, faces: 2

o obj107
v 10 10 55
v 10 7 55
v 10 10 60
v 10 7 60
vn -1 0 0
vt 0.79688 0
vt 0.79688 0.04688
vt 0.71875 0
vt 0.71875 0.04688
usemtl mat2
f 752/604/202 753/605/202 754/606/202
f 753/605/202 755/607/202 754/606/202
# Vertices: 4, normals: 1, texture coordinates: 4, faces: 2

o obj108
v 10 10 60
v 10 7 60
v 15 10 60
v 15 7 60
vn 0 0 1
vt 0.71875 0
vt 0.71875 0.04688
vt 0.79688 0
vt 0.79688 0.04688
usemtl mat2
f 756/608/203 757/609/203 758/610/203
f 757/609/203 759/611/203 758/610/203
# Vertices: 4, normals: 1, texture coordinates: 4, faces: 2

o obj109
v 15 10 55
v 15 7 55
v 10 10 55
v 10 7 55
vn 0 0 -1
vt 0.71875 0
vt 0.71875 0.04688
vt 0.79688 0
vt 0.79688 0.04688
usemtl mat2
f 760/612/204 761/613/204 762/614/204
f 761/613/204 763/615/204 762/614/204
# Vertices: 4, normals: 1, texture coordinates: 4, faces: 2

o obj110
v 17 18 45
v 17 11 45
v 17 18 38
v 17 11 38
v 10 18 38
v 10 11 38
v 10 18 45
v 10 11 45
v 10 18 38
v 10 18 45
v 17 18 38
v 17 18 45
v 10 11 45
v 10 11 38
v 17 11 45
v 17 11 38
v 17 18 45
v 17 11 45
v 17 18 38
v 17 11 38
v 10 18 38
v 10 11 38
vn 1 0 0
vn -1 0 0
vn 0 1 0
vn 0 -1 0
vn 0 0 1
vn 0 0 -1
vt 0.89062 0.54688
vt 0.89062 0.65625
vt 1 0.54688
vt 1 0.65625
vt 0.89062 0.32812
vt 0.89062 0.4375
vt 0.78125 0.32812
vt 0.78125 0.4375
vt 0.78125 0.54688
vt 0.78125 0.65625
vt 0.89062 0.21875
vt 0.78125 0.21875
vt 1 0.4375
usemtl mat2
f 764/616/205 765/617/205 766/618/205
f 765/617/205 767/619/205 766/618/205
f 768/620/206 769/621/206 770/622/206
f 769/621/206 771/623/206 770/622/206
f 772/616/207 773/617/207 774/624/207
f 773/617/207 775/625/207 774/624/207
f 776/626/208 777/620/208 778/627/208
f 777/620/208 779/622/208 778/627/208
f 770/622/209 771/623/209 780/620/209
f 771/623/209 781/621/209 780/620/209
f 782/628/210 783/618/210 784/621/210
f 783/618/210 785/616/210 784/621/210
# Vertices: 22, normals: 6, texture coordinates: 13, faces: 12

o obj111
v 17 18 62
v 17 11 62
v 17 18 55
v 17 11 55
v 10 18 55
v 10 11 55
v 10 18 62
v 10 11 62
v 10 18 55
v 10 18 62
v 17 18 55
v 17 18 62
v 10 11 62
v 10 11 55
v 17 11 62
v 17 11 55
v 10 18 62
v 10 11 62
v 17 18 62
v 17 11 62
v 17 18 55
v 17 11 55
vn 1 0 0
vn -1 0 0
vn 0 1 0
vn 0 -1 0
vn 0 0 1
vn 0 0 -1
vt 1 0.4375
vt 1 0.54688
vt 0.89062 0.4375
vt 0.89062 0.54688
vt 0.78125 0.32812
vt 0.78125 0.4375
vt 0.89062 0.32812
vt 0.78125 0.54688
vt 0.78125 0.65625
vt 0.89062 0.65625
vt 0.78125 0.21875
vt 0.89062 0.21875
vt 1 0.65625
usemtl mat2
f 786/629/211 787/630/211 788/631/211
f 787/630/211 789/632/211 788/631/211
f 790/633/212 791/634/212 792/635/212
f 791/634/212 793/631/212 792/635/212
f 794/636/213 795/637/213 796/632/213
f 795/637/213 797/638/213 796/632/213
f 798/639/214 799/633/214 800/640/214
f 799/633/214 801/635/214 800/640/214
f 802/632/215 803/638/215 804/630/215
f 803/638/215 805/641/215 804/630/215
f 806/635/216 807/631/216 790/633/216
f 807/631/216 791/634/216 790/633/216
# Vertices: 22, normals: 6, texture coordinates: 13, faces: 12

o obj112
v 15 12 60
v 15 10 60
v 15 12 40
v 15 10 40
vn 1 0 0
vt 0.34375 0.14062
vt 0.34375 0.17188
vt 0.65625 0.14062
vt 0.65625 0.17188
usemtl mat2
f 808/642/217 809/643/217 810/644/217
f 809/643/217 811/645/217 810/644/217
# Vertices: 4, normals: 1, texture coordinates: 4, faces: 2

o obj113
v -7 12 40
v -7 10 40
v -7 12 60
v -7 10 60
vn -1 0 0
vt 0.34375 0.14062
vt 0.34375 0.17188
vt 0.65625 0.14062
vt 0.65625 0.17188
usemtl mat2
f 812/646/218 813/647/218 814/648/218
f 813/647/218 815/649/218 814/648/218
# Vertices: 4, normals: 1, texture coordinates: 4, faces: 2

o obj114
v -7 10 60
v -7 10 40
v 15 10 60
v 15 10 40
vn 0 -1 0
vt 0.01562 0.14062
vt 0.01562 0.15625
vt 0.03125 0.14062
vt 0.03125 0.15625
usemtl mat2
f 816/650/219 817/651/219 818/652/219
f 817/651/219 819/653/219 818/652/219
# Vertices: 4, normals: 1, texture coordinates: 4, faces: 2

o obj115
v -7 12 60
v -7 10 60
v 15 12 60
v 15 10 60
vn 0 0 1
vt 0 0.14062
vt 0 0.17188
vt 0.34375 0.14062
vt 0.34375 0.17188
usemtl mat2
f 820/654/220 821/655/220 822/656/220
f 821/655/220 823/657/220 822/656/220
# Vertices: 4, normals: 1, texture coordinates: 4, faces: 2

o obj116
v 15 12 40
v 15 10 40
v -7 12 40
v -7 10 40
vn 0 0 -1
vt 0 0.14062
vt 0 0.17188
vt 0.34375 0.14062
vt 0.34375 0.17188
usemtl mat2
f 824/658/221 825/659/221 826/660/221
f 825/659/221 827/661/221 826/660/221
# Vertices: 4, normals: 1, texture coordinates: 4, faces: 2

o obj117
v 16 17 61
v 16 12 61
v 16 17 39
v 16 12 39
v -8 17 39
v -8 12 39
v -8 17 61
v -8 12 61
v -8 17 39
v -8 17 61
v 16 17 39
v 16 17 61
v -8 12 61
v -8 12 39
v 16 12 61
v 16 12 39
v -8 17 61
v -8 12 61
v 16 17 39
v 16 12 39
vn 1 0 0
vn -1 0 0
vn 0 1 0
vn 0 -1 0
vn 0 0 1
vn 0 0 -1
vt 0.375 0
vt 0.375 0.07812
vt 0.71875 0
vt 0.71875 0.07812
vt 0.625 0.65625
vt 0.625 1
vt 1 0.65625
vt 1 1
vt 0.01562 0.14062
vt 0.01562 0.15625
vt 0.03125 0.14062
vt 0.03125 0.15625
vt 0 0
vt 0 0.07812
usemtl mat2
f 828/662/222 829/663/222 830/664/222
f 829/663/222 831/665/222 830/664/222
f 832/662/223 833/663/223 834/664/223
f 833/663/223 835/665/223 834/664/223
f 836/666/224 837/667/224 838/668/224
f 837/667/224 839/669/224 838/668/224
f 840/670/225 841/671/225 842/672/225
f 841/671/225 843/673/225 842/672/225
f 844/674/226 845/675/226 828/662/226
f 845/675/226 829/663/226 828/662/226
f 846/674/227 847/675/227 832/662/227
f 847/675/227 833/663/227 832/662/227
# Vertices: 20, normals: 6, texture coordinates: 14, faces: 12

o obj118
v -2 18 45
v -2 11 45
v -2 18 38
v -2 11 38
v -9 18 38
v -9 11 38
v -9 18 45
v -9 11 45
v -9 18 38
v -9 18 45
v -2 18 38
v -2 18 45
v -9 11 45
v -9 11 38
v -2 11 45
v -2 11 38
v -9 18 45
v -9 11 45
v -2 11 38
v -9 18 38
v -9 11 38
vn 1 0 0
vn -1 0 0
vn 0 1 0
vn 0 -1 0
vn 0 0 1
vn 0 0 -1
vt 0.78125 0.32812
vt 0.78125 0.4375
vt 0.89062 0.32812
vt 0.89062 0.4375
vt 1 0.4375
vt 1 0.54688
vt 0.89062 0.54688
vt 0.78125 0.54688
vt 0.78125 0.65625
vt 0.89062 0.65625
vt 0.78125 0.21875
vt 0.89062 0.21875
vt 1 0.65625
usemtl mat2
f 848/676/228 849/677/228 850/678/228
f 849/677/228 851/679/228 850/678/228
f 852/680/229 853/681/229 854/679/229
f 853/681/229 855/682/229 854/679/229
f 856/683/230 857/684/230 858/682/230
f 857/684/230 859/685/230 858/682/230
f 860/686/231 861/676/231 862/687/231
f 861/676/231 863/678/231 862/687/231
f 864/678/232 865/679/232 848/676/232
f 865/679/232 849/677/232 848/676/232
f 858/682/233 866/685/233 867/681/233
f 866/685/233 868/688/233 867/681/233
# Vertices: 21, normals: 6, texture coordinates: 13, faces: 12

o obj119
v -2 18 62
v -2 11 62
v -2 18 55
v -2 11 55
v -9 18 55
v -9 11 55
v -9 18 62
v -9 11 62
v -9 18 62
v -2 18 55
v -2 18 62
v -9 11 62
v -9 11 55
v -2 11 62
v -2 11 55
v -9 18 62
v -9 11 62
v -2 18 62
v -2 11 62
v -9 18 55
v -9 11 55
vn 1 0 0
vn -1 0 0
vn 0 1 0
vn 0 -1 0
vn 0 0 1
vn 0 0 -1
vt 0.89062 0.32812
vt 0.89062 0.4375
vt 0.78125 0.32812
vt 0.78125 0.4375
vt 0.89062 0.54688
vt 0.89062 0.65625
vt 1 0.54688
vt 1 0.65625
vt 0.78125 0.54688
vt 0.78125 0.65625
vt 0.89062 0.21875
vt 0.78125 0.21875
vt 1 0.4375
usemtl mat2
f 869/689/234 870/690/234 871/691/234
f 870/690/234 872/692/234 871/691/234
f 873/693/235 874/694/235 875/695/235
f 874/694/235 876/696/235 875/695/235
f 873/693/236 877/694/236 878/697/236
f 877/694/236 879/698/236 878/697/236
f 880/699/237 881/689/237 882/700/237
f 881/689/237 883/691/237 882/700/237
f 884/701/238 885/695/238 886/690/238
f 885/695/238 887/693/238 886/690/238
f 871/691/239 872/692/239 888/689/239
f 872/692/239 889/690/239 888/689/239
# Vertices: 21, normals: 6, texture coordinates: 13, faces: 12

o obj120
v 16 20 44
v 16 18 44
v 16 20 39
v 16 18 39
vn 1 0 0
vt 0.79688 0.0625
vt 0.79688 0.09375
vt 0.875 0.0625
vt 0.875 0.09375
usemtl mat2
f 890/702/240 891/703/240 892/704/240
f 891/703/240 893/705/240 892/704/240
# Vertices: 4, normals: 1, texture coordinates: 4, faces: 2

o obj121
v 11 20 39
v 11 18 39
v 11 20 44
v 11 18 44
vn -1 0 0
vt 0.25 0.17188
vt 0.25 0.20312
vt 0.32812 0.17188
vt 0.32812 0.20312
usemtl mat2
f 894/706/241 895/707/241 896/708/241
f 895/707/241 897/709/241 896/708/241
# Vertices: 4, normals: 1, texture coordinates: 4, faces: 2

o obj122
v 11 20 44
v 11 18 44
v 16 20 44
v 16 18 44
vn 0 0 1
vt 0.25 0.17188
vt 0.25 0.20312
vt 0.32812 0.17188
vt 0.32812 0.20312
usemtl mat2
f 898/710/242 899/711/242 900/712/242
f 899/711/242 901/713/242 900/712/242
# Vertices: 4, normals: 1, texture coordinates: 4, faces: 2

o obj123
v 16 20 39
v 16 18 39
v 11 20 39
v 11 18 39
vn 0 0 -1
vt 0.79688 0.04688
vt 0.79688 0.07812
vt 0.71875 0.04688
vt 0.71875 0.07812
usemtl mat2
f 902/714/243 903/715/243 904/716/243
f 903/715/243 905/717/243 904/716/243
# Vertices: 4, normals: 1, texture coordinates: 4, faces: 2

o obj124
v -3 20 44
v -3 18 44
v -3 20 39
v -3 18 39
vn 1 0 0
vt 0.25 0.17188
vt 0.25 0.20312
vt 0.32812 0.17188
vt 0.32812 0.20312
usemtl mat2
f 906/718/244 907/719/244 908/720/244
f 907/719/244 909/721/244 908/720/244
# Vertices: 4, normals: 1, texture coordinates: 4, faces: 2

o obj125
v -8 20 39
v -8 18 39
v -8 20 44
v -8 18 44
vn -1 0 0
vt 0.875 0.0625
vt 0.875 0.09375
vt 0.79688 0.0625
vt 0.79688 0.09375
usemtl mat2
f 910/722/245 911/723/245 912/724/245
f 911/723/245 913/725/245 912/724/245
# Vertices: 4, normals: 1, texture coordinates: 4, faces: 2

o obj126
v -8 20 44
v -8 18 44
v -3 20 44
v -3 18 44
vn 0 0 1
vt 0.25 0.17188
vt 0.25 0.20312
vt 0.32812 0.17188
vt 0.32812 0.20312
usemtl mat2
f 914/726/246 915/727/246 916/728/246
f 915/727/246 917/729/246 916/728/246
# Vertices: 4, normals: 1, texture coordinates: 4, faces: 2

o obj127
v -3 20 39
v -3 18 39
v -8 20 39
v -8 18 39
vn 0 0 -1
vt 0.71875 0.04688
vt 0.71875 0.07812
vt 0.79688 0.04688
vt 0.79688 0.07812
usemtl mat2
f 918/730/247 919/731/247 920/732/247
f 919/731/247 921/733/247 920/732/247
# Vertices: 4, normals: 1, texture coordinates: 4, faces: 2

o obj128
v 7 20 61
v 7 18 61
v 7 20 39
v 7 18 39
vn 1 0 0
vt 0 0.23438
vt 0 0.26562
vt 0.34375 0.23438
vt 0.34375 0.26562
usemtl mat2
f 922/734/248 923/735/248 924/736/248
f 923/735/248 925/737/248 924/736/248
# Vertices: 4, normals: 1, texture coordinates: 4, faces: 2

o obj129
v 1 20 39
v 1 18 39
v 1 20 61
v 1 18 61
vn -1 0 0
vt 0 0.23438
vt 0 0.26562
vt 0.34375 0.23438
vt 0.34375 0.26562
usemtl mat2
f 926/738/249 927/739/249 928/740/249
f 927/739/249 929/741/249 928/740/249
# Vertices: 4, normals: 1, texture coordinates: 4, faces: 2

o obj130
v 1 18 61
v 1 18 39
v 7 18 61
v 7 18 39
vn 0 -1 0
vt 0.53125 0.17188
vt 0.53125 0.51562
vt 0.625 0.17188
vt 0.625 0.51562
usemtl mat2
f 930/742/250 931/743/250 932/744/250
f 931/743/250 933/745/250 932/744/250
# Vertices: 4, normals: 1, texture coordinates: 4, faces: 2

o obj131
v 1 20 61
v 1 18 61
v 7 20 61
v 7 18 61
vn 0 0 1
vt 0.78125 0.09375
vt 0.78125 0.125
vt 0.875 0.09375
vt 0.875 0.125
usemtl mat2
f 934/746/251 935/747/251 936/748/251
f 935/747/251 937/749/251 936/748/251
# Vertices: 4, normals: 1, texture coordinates: 4, faces: 2

o obj132
v 7 20 39
v 7 18 39
v 1 20 39
v 1 18 39
vn 0 0 -1
vt 0.78125 0.09375
vt 0.78125 0.125
vt 0.875 0.09375
vt 0.875 0.125
usemtl mat2
f 938/750/252 939/751/252 940/752/252
f 939/751/252 941/753/252 940/752/252
# Vertices: 4, normals: 1, texture coordinates: 4, faces: 2

o obj133
v 16 20 61
v 16 18 61
v 16 20 56
v 16 18 56
vn 1 0 0
vt 0.875 0.0625
vt 0.875 0.09375
vt 0.79688 0.0625
vt 0.79688 0.09375
usemtl mat2
f 942/754/253 943/755/253 944/756/253
f 943/755/253 945/757/253 944/756/253
# Vertices: 4, normals: 1, texture coordinates: 4, faces: 2

o obj134
v 11 20 56
v 11 18 56
v 11 20 61
v 11 18 61
vn -1 0 0
vt 0.25 0.17188
vt 0.25 0.20312
vt 0.32812 0.17188
vt 0.32812 0.20312
usemtl mat2
f 946/758/254 947/759/254 948/760/254
f 947/759/254 949/761/254 948/760/254
# Vertices: 4, normals: 1, texture coordinates: 4, faces: 2

o obj135
v 11 20 61
v 11 18 61
v 16 20 61
v 16 18 61
vn 0 0 1
vt 0.71875 0.04688
vt 0.71875 0.07812
vt 0.79688 0.04688
vt 0.79688 0.07812
usemtl mat2
f 950/762/255 951/763/255 952/764/255
f 951/763/255 953/765/255 952/764/255
# Vertices: 4, normals: 1, texture coordinates: 4, faces: 2

o obj136
v 16 20 56
v 16 18 56
v 11 20 56
v 11 18 56
vn 0 0 -1
vt 0.25 0.17188
vt 0.25 0.20312
vt 0.32812 0.17188
vt 0.32812 0.20312
usemtl mat2
f 954/766/256 955/767/256 956/768/256
f 955/767/256 957/769/256 956/768/256
# Vertices: 4, normals: 1, texture coordinates: 4, faces: 2

o obj137
v -3 20 61
v -3 18 61
v -3 20 56
v -3 18 56
vn 1 0 0
vt 0.25 0.17188
vt 0.25 0.20312
vt 0.32812 0.17188
vt 0.32812 0.20312
usemtl mat2
f 958/770/257 959/771/257 960/772/257
f 959/771/257 961/773/257 960/772/257
# Vertices: 4, normals: 1, texture coordinates: 4, faces: 2

o obj138
v -8 20 56
v -8 18 56
v -8 20 61
v -8 18 61
vn -1 0 0
vt 0.79688 0.0625
vt 0.79688 0.09375
vt 0.875 0.0625
vt 0.875 0.09375
usemtl mat2
f 962/774/258 963/775/258 964/776/258
f 963/775/258 965/777/258 964/776/258
# Vertices: 4, normals: 1, texture coordinates: 4, faces: 2

o obj139
v -8 20 61
v -8 18 61
v -3 20 61
v -3 18 61
vn 0 0 1
vt 0.79688 0.04688
vt 0.79688 0.07812
vt 0.71875 0.04688
vt 0.71875 0.07812
usemtl mat2
f 966/778/259 967/779/259 968/780/259
f 967/779/259 969/781/259 968/780/259
# Vertices: 4, normals: 1, texture coordinates: 4, faces: 2

o obj140
v -3 20 56
v -3 18 56
v -8 20 56
v -8 18 56
vn 0 0 -1
vt 0.25 0.17188
vt 0.25 0.20312
vt 0.32812 0.17188
vt 0.32812 0.20312
usemtl mat2
f 970/782/260 971/783/260 972/784/260
f 971/783/260 973/785/260 972/784/260
# Vertices: 4, normals: 1, texture coordinates: 4, faces: 2

o obj141
v 6.99000001 23 58
v 6.99000001 20.00186746 60.99813254
v 6.99000001 20.87867969 55.87867969
v 6.99000001 17.88054715 58.87681223
vn 1 0 0
vt 0.625 0.23438
vt 0.625 0.29688
vt 0.6875 0.23438
vt 0.6875 0.29688
usemtl mat2
f 974/786/261 975/787/261 976/788/261
f 975/787/261 977/789/261 976/788/261
# Vertices: 4, normals: 1, texture coordinates: 4, faces: 2

o obj142
v 1.00999999 20.87867969 55.87867969
v 1.00999999 17.88054715 58.87681223
v 1.00999999 23 58
v 1.00999999 20.00186746 60.99813254
vn -1 0 0
vt 0.6875 0.23438
vt 0.6875 0.29688
vt 0.625 0.23438
vt 0.625 0.29688
usemtl mat2
f 978/790/262 979/791/262 980/792/262
f 979/791/262 981/793/262 980/792/262
# Vertices: 4, normals: 1, texture coordinates: 4, faces: 2

o obj143
v 1.00999999 23 58
v 1.00999999 20.00186746 60.99813254
v 6.99000001 23 58
v 6.99000001 20.00186746 60.99813254
vn 0 0 1
vt 0.78125 0.125
vt 0.78125 0.1875
vt 0.875 0.125
vt 0.875 0.1875
usemtl mat2
f 982/794/263 983/795/263 984/796/263
f 983/795/263 985/797/263 984/796/263
# Vertices: 4, normals: 1, texture coordinates: 4, faces: 2

o obj144
v 15.99000001 23 58
v 15.99000001 20.00186746 60.99813254
v 15.99000001 20.87867969 55.87867969
v 15.99000001 17.88054715 58.87681223
vn 1 0 0
vt 0.65625 0.14062
vt 0.71875 0.14062
vt 0.65625 0.07812
vt 0.71875 0.07812
usemtl mat2
f 986/798/264 987/799/264 988/800/264
f 987/799/264 989/801/264 988/800/264
# Vertices: 4, normals: 1, texture coordinates: 4, faces: 2

o obj145
v 11.00999999 20.87867969 55.87867969
v 11.00999999 17.88054715 58.87681223
v 11.00999999 23 58
v 11.00999999 20.00186746 60.99813254
vn -1 0 0
vt 0.3125 0.17188
vt 0.25 0.17188
vt 0.3125 0.21875
vt 0.25 0.21875
usemtl mat2
f 990/802/265 991/803/265 992/804/265
f 991/803/265 993/805/265 992/804/265
# Vertices: 4, normals: 1, texture coordinates: 4, faces: 2

o obj146
v 11.00999999 23 58
v 11.00999999 20.00186746 60.99813254
v 15.99000001 23 58
v 15.99000001 20.00186746 60.99813254
vn 0 0 1
vt 0.875 0
vt 0.875 0.0625
vt 0.79688 0
vt 0.79688 0.0625
usemtl mat2
f 994/806/266 995/807/266 996/808/266
f 995/807/266 997/809/266 996/808/266
# Vertices: 4, normals: 1, texture coordinates: 4, faces: 2

o obj147
v -3.00999999 23 58
v -3.00999999 20.00186746 60.99813254
v -3.00999999 20.87867969 55.87867969
v -3.00999999 17.88054715 58.87681223
vn 1 0 0
vt 0.3125 0.17188
vt 0.25 0.17188
vt 0.3125 0.21875
vt 0.25 0.21875
usemtl mat2
f 998/810/267 999/811/267 1000/812/267
f 999/811/267 1001/813/267 1000/812/267
# Vertices: 4, normals: 1, texture coordinates: 4, faces: 2

o obj148
v -7.99000001 20.87867969 55.87867969
v -7.99000001 17.88054715 58.87681223
v -7.99000001 23 58
v -7.99000001 20.00186746 60.99813254
vn -1 0 0
vt 0.65625 0.07812
vt 0.71875 0.07812
vt 0.65625 0.14062
vt 0.71875 0.14062
usemtl mat2
f 1002/814/268 1003/815/268 1004/816/268
f 1003/815/268 1005/817/268 1004/816/268
# Vertices: 4, normals: 1, texture coordinates: 4, faces: 2

o obj149
v -7.99000001 23 58
v -7.99000001 20.00186746 60.99813254
v -3.00999999 23 58
v -3.00999999 20.00186746 60.99813254
vn 0 0 1
vt 0.79688 0
vt 0.79688 0.0625
vt 0.875 0
vt 0.875 0.0625
usemtl mat2
f 1006/818/269 1007/819/269 1008/820/269
f 1007/819/269 1009/821/269 1008/820/269
# Vertices: 4, normals: 1, texture coordinates: 4, faces: 2

o obj150
v 6.99000001 23 42
v 6.99000001 20.87867969 44.12132031
v 6.99000001 20.00186746 39.00186746
v 6.99000001 17.88054715 41.12318777
vn 1 0 0
vt 0.625 0.17188
vt 0.625 0.23438
vt 0.6875 0.17188
vt 0.6875 0.23438
usemtl mat2
f 1010/822/270 1011/823/270 1012/824/270
f 1011/823/270 1013/825/270 1012/824/270
# Vertices: 4, normals: 1, texture coordinates: 4, faces: 2

o obj151
v 1.00999999 20.00186746 39.00186746
v 1.00999999 17.88054715 41.12318777
v 1.00999999 23 42
v 1.00999999 20.87867969 44.12132031
vn -1 0 0
vt 0.625 0.17188
vt 0.625 0.23438
vt 0.6875 0.17188
vt 0.6875 0.23438
usemtl mat2
f 1014/826/271 1015/827/271 1016/828/271
f 1015/827/271 1017/829/271 1016/828/271
# Vertices: 4, normals: 1, texture coordinates: 4, faces: 2

o obj152
v 1.00999999 20.00186746 39.00186746
v 1.00999999 23 42
v 6.99000001 20.00186746 39.00186746
v 6.99000001 23 42
vn 0 1 0
vt 0.78125 0.125
vt 0.78125 0.1875
vt 0.875 0.125
vt 0.875 0.1875
usemtl mat2
f 1018/830/272 1019/831/272 1020/832/272
f 1019/831/272 1021/833/272 1020/832/272
# Vertices: 4, normals: 1, texture coordinates: 4, faces: 2

o obj153
v 15.99000001 23 42
v 15.99000001 20.87867969 44.12132031
v 15.99000001 20.00186746 39.00186746
v 15.99000001 17.88054715 41.12318777
vn 1 0 0
vt 0.71875 0.14062
vt 0.78125 0.14062
vt 0.71875 0.07812
vt 0.78125 0.07812
usemtl mat2
f 1022/834/273 1023/835/273 1024/836/273
f 1023/835/273 1025/837/273 1024/836/273
# Vertices: 4, normals: 1, texture coordinates: 4, faces: 2

o obj154
v 11.00999999 20.00186746 39.00186746
v 11.00999999 17.88054715 41.12318777
v 11.00999999 23 42
v 11.00999999 20.87867969 44.12132031
vn -1 0 0
vt 0.25 0.17188
vt 0.25 0.21875
vt 0.3125 0.17188
vt 0.3125 0.21875
usemtl mat2
f 1026/838/274 1027/839/274 1028/840/274
f 1027/839/274 1029/841/274 1028/840/274
# Vertices: 4, normals: 1, texture coordinates: 4, faces: 2

o obj155
v 11.00999999 20.00186746 39.00186746
v 11.00999999 23 42
v 15.99000001 20.00186746 39.00186746
v 15.99000001 23 42
vn 0 1 0
vt 0.875 0
vt 0.875 0.0625
vt 0.79688 0
vt 0.79688 0.0625
usemtl mat2
f 1030/842/275 1031/843/275 1032/844/275
f 1031/843/275 1033/845/275 1032/844/275
# Vertices: 4, normals: 1, texture coordinates: 4, faces: 2

o obj156
v -3.00999999 23 42
v -3.00999999 20.87867969 44.12132031
v -3.00999999 20.00186746 39.00186746
v -3.00999999 17.88054715 41.12318777
vn 1 0 0
vt 0.3125 0.17188
vt 0.25 0.17188
vt 0.3125 0.21875
vt 0.25 0.21875
usemtl mat2
f 1034/846/276 1035/847/276 1036/848/276
f 1035/847/276 1037/849/276 1036/848/276
# Vertices: 4, normals: 1, texture coordinates: 4, faces: 2

o obj157
v -7.99000001 20.00186746 39.00186746
v -7.99000001 17.88054715 41.12318777
v -7.99000001 23 42
v -7.99000001 20.87867969 44.12132031
vn -1 0 0
vt 0.71875 0.14062
vt 0.78125 0.14062
vt 0.71875 0.07812
vt 0.78125 0.07812
usemtl mat2
f 1038/850/277 1039/851/277 1040/852/277
f 1039/851/277 1041/853/277 1040/852/277
# Vertices: 4, normals: 1, texture coordinates: 4, faces: 2

o obj158
v -7.99000001 20.00186746 39.00186746
v -7.99000001 23 42
v -3.00999999 20.00186746 39.00186746
v -3.00999999 23 42
vn 0 1 0
vt 0.79688 0
vt 0.79688 0.0625
vt 0.875 0
vt 0.875 0.0625
usemtl mat2
f 1042/854/278 1043/855/278 1044/856/278
f 1043/855/278 1045/857/278 1044/856/278
# Vertices: 4, normals: 1, texture coordinates: 4, faces: 2

o obj159
v 7 23 58
v 7 19 58
v 7 23 42
v 7 19 42
vn 1 0 0
vt 0 0.26562
vt 0 0.32812
vt 0.25 0.26562
vt 0.25 0.32812
usemtl mat2
f 1046/858/279 1047/859/279 1048/860/279
f 1047/859/279 1049/861/279 1048/860/279
# Vertices: 4, normals: 1, texture coordinates: 4, faces: 2

o obj160
v 1 23 42
v 1 19 42
v 1 23 58
v 1 19 58
vn -1 0 0
vt 0 0.26562
vt 0 0.32812
vt 0.25 0.26562
vt 0.25 0.32812
usemtl mat2
f 1050/862/280 1051/863/280 1052/864/280
f 1051/863/280 1053/865/280 1052/864/280
# Vertices: 4, normals: 1, texture coordinates: 4, faces: 2

o obj161
v 1 23 42
v 1 23 58
v 7 23 42
v 7 23 58
vn 0 1 0
vt 0.78125 0.14062
vt 0.78125 0.39062
vt 0.6875 0.14062
vt 0.6875 0.39062
usemtl mat2
f 1054/866/281 1055/867/281 1056/868/281
f 1055/867/281 1057/869/281 1056/868/281
# Vertices: 4, normals: 1, texture coordinates: 4, faces: 2

o obj162
v 16 23 58
v 16 19 58
v 16 23 42
v 16 19 42
vn 1 0 0
vt 0 0.17188
vt 0 0.23438
vt 0.25 0.17188
vt 0.25 0.23438
usemtl mat2
f 1058/870/282 1059/871/282 1060/872/282
f 1059/871/282 1061/873/282 1060/872/282
# Vertices: 4, normals: 1, texture coordinates: 4, faces: 2

o obj163
v 11 23 42
v 11 19 42
v 11 23 58
v 11 19 58
vn -1 0 0
vt 0.25 0.17188
vt 0.25 0.23438
vt 0.5 0.17188
vt 0.5 0.23438
usemtl mat2
f 1062/874/283 1063/875/283 1064/876/283
f 1063/875/283 1065/877/283 1064/876/283
# Vertices: 4, normals: 1, texture coordinates: 4, faces: 2

o obj164
v 11 23 42
v 11 23 58
v 16 23 42
v 16 23 58
vn 0 1 0
vt 0.70312 0.40625
vt 0.70312 0.65625
vt 0.78125 0.40625
vt 0.78125 0.65625
usemtl mat2
f 1066/878/284 1067/879/284 1068/880/284
f 1067/879/284 1069/881/284 1068/880/284
# Vertices: 4, normals: 1, texture coordinates: 4, faces: 2

o obj165
v 11 19 58
v 11 19 42
v 16 19 58
v 16 19 42
vn 0 -1 0
vt 0.625 0.40625
vt 0.625 0.65625
vt 0.70312 0.40625
vt 0.70312 0.65625
usemtl mat2
f 1070/882/285 1071/883/285 1072/884/285
f 1071/883/285 1073/885/285 1072/884/285
# Vertices: 4, normals: 1, texture coordinates: 4, faces: 2

o obj166
v -3 23 58
v -3 19 58
v -3 23 42
v -3 19 42
vn 1 0 0
vt 0.25 0.17188
vt 0.25 0.23438
vt 0.5 0.17188
vt 0.5 0.23438
usemtl mat2
f 1074/886/286 1075/887/286 1076/888/286
f 1075/887/286 1077/889/286 1076/888/286
# Vertices: 4, normals: 1, texture coordinates: 4, faces: 2

o obj167
v -8 23 42
v -8 19 42
v -8 23 58
v -8 19 58
vn -1 0 0
vt 0 0.17188
vt 0 0.23438
vt 0.25 0.17188
vt 0.25 0.23438
usemtl mat2
f 1078/890/287 1079/891/287 1080/892/287
f 1079/891/287 1081/893/287 1080/892/287
# Vertices: 4, normals: 1, texture coordinates: 4, faces: 2

o obj168
v -8 23 42
v -8 23 58
v -3 23 42
v -3 23 58
vn 0 1 0
vt 0.78125 0.40625
vt 0.78125 0.65625
vt 0.70312 0.40625
vt 0.70312 0.65625
usemtl mat2
f 1082/894/288 1083/895/288 1084/896/288
f 1083/895/288 1085/897/288 1084/896/288
# Vertices: 4, normals: 1, texture coordinates: 4, faces: 2

o obj169
v -8 19 58
v -8 19 42
v -3 19 58
v -3 19 42
vn 0 -1 0
vt 0.25 0.17188
vt 0.25 0.23438
vt 0.5 0.17188
vt 0.5 0.23438
usemtl mat2
f 1086/898/289 1087/899/289 1088/900/289
f 1087/899/289 1089/901/289 1088/900/289
# Vertices: 4, normals: 1, texture coordinates: 4, faces: 2

o obj170
v -3 22 57
v -3 19.00186746 59.99813254
v 11 22 57
v 11 19.00186746 59.99813254
vn 0 1 0
vt 0 0.85938
vt 0 0.92188
vt 0.21875 0.85938
vt 0.21875 0.92188
usemtl mat2
f 1090/902/290 1091/903/290 1092/904/290
f 1091/903/290 1093/905/290 1092/904/290
# Vertices: 4, normals: 1, texture coordinates: 4, faces: 2

o obj171
v 11 22 43
v 11 19.00186746 40.00186746
v -3 22 43
v -3 19.00186746 40.00186746
vn 0 0 -1
vt 0 0.85938
vt 0 0.92188
vt 0.21875 0.85938
vt 0.21875 0.92188
usemtl mat2
f 1094/906/291 1095/907/291 1096/908/291
f 1095/907/291 1097/909/291 1096/908/291
# Vertices: 4, normals: 1, texture coordinates: 4, faces: 2

o obj172
v -3 22 43
v -3 22 57
v 11 22 43
v 11 22 57
vn 0 1 0
vt 0 0.57812
vt 0 0.79688
vt 0.21875 0.57812
vt 0.21875 0.79688
usemtl mat2
f 1098/910/292 1099/911/292 1100/912/292
f 1099/911/292 1101/913/292 1100/912/292
# Vertices: 4, normals: 1, texture coordinates: 4, faces: 2

o obj173
v 14 10 59
v 14 5 59
v 14 10 41
v 14 5 41
vn 1 0 0
vt 0.01562 0.92188
vt 0.01562 1
vt 0.29688 0.92188
vt 0.29688 1
usemtl mat2
f 1102/914/293 1103/915/293 1104/916/293
f 1103/915/293 1105/917/293 1104/916/293
# Vertices: 4, normals: 1, texture coordinates: 4, faces: 2

o obj174
v -6 10 41
v -6 5 41
v -6 10 59
v -6 5 59
vn -1 0 0
vt 0.01562 0.92188
vt 0.01562 1
vt 0.29688 0.92188
vt 0.29688 1
usemtl mat2
f 1106/918/294 1107/919/294 1108/920/294
f 1107/919/294 1109/921/294 1108/920/294
# Vertices: 4, normals: 1, texture coordinates: 4, faces: 2

o obj175
v -6 10 59
v -6 5 59
v 14 10 59
v 14 5 59
vn 0 0 1
vt 0 0.92188
vt 0 1
vt 0.3125 0.92188
vt 0.3125 1
usemtl mat2
f 1110/922/295 1111/923/295 1112/924/295
f 1111/923/295 1113/925/295 1112/924/295
# Vertices: 4, normals: 1, texture coordinates: 4, faces: 2

o obj176
v 14 10 41
v 14 5 41
v -6 10 41
v -6 5 41
vn 0 0 -1
vt 0 0.92188
vt 0 1
vt 0.3125 0.92188
vt 0.3125 1
usemtl mat2
f 1114/926/296 1115/927/296 1116/928/296
f 1115/927/296 1117/929/296 1116/928/296
# Vertices: 4, normals: 1, texture coordinates: 4, faces: 2

o obj177
v 15 19 60
v 15 17 60
v 15 19 40
v 15 17 40
vn 1 0 0
vt 0 0.79688
vt 0 0.82812
vt 0.3125 0.79688
vt 0.3125 0.82812
usemtl mat2
f 1118/930/297 1119/931/297 1120/932/297
f 1119/931/297 1121/933/297 1120/932/297
# Vertices: 4, normals: 1, texture coordinates: 4, faces: 2

o obj178
v -7 19 40
v -7 17 40
v -7 19 60
v -7 17 60
vn -1 0 0
vt 0 0.79688
vt 0 0.82812
vt 0.3125 0.79688
vt 0.3125 0.82812
usemtl mat2
f 1122/934/298 1123/935/298 1124/936/298
f 1123/935/298 1125/937/298 1124/936/298
# Vertices: 4, normals: 1, texture coordinates: 4, faces: 2

o obj179
v -7 19 60
v -7 17 60
v 15 19 60
v 15 17 60
vn 0 0 1
vt 0 0.96875
vt 0 1
vt 0.34375 0.96875
vt 0.34375 1
usemtl mat2
f 1126/938/299 1127/939/299 1128/940/299
f 1127/939/299 1129/941/299 1128/940/299
# Vertices: 4, normals: 1, texture coordinates: 4, faces: 2

o obj180
v 15 19 40
v 15 17 40
v -7 19 40
v -7 17 40
vn 0 0 -1
vt 0 0.96875
vt 0 1
vt 0.34375 0.96875
vt 0.34375 1
usemtl mat2
f 1130/942/300 1131/943/300 1132/944/300
f 1131/943/300 1133/945/300 1132/944/300
# Vertices: 4, normals: 1, texture coordinates: 4, faces: 2

